<svg width="1920" height="400" viewBox="0 0 1920 400" fill="none" xmlns="http://www.w3.org/2000/svg">
<rect width="1920" height="400" fill="white"/>
<rect x="376" y="101" width="1168" height="198" stroke="#EEEEEE" stroke-width="2"/>
<circle cx="659.5" cy="200.5" r="7.5" fill="#F3602D"/>
<circle cx="960.5" cy="200.5" r="7.5" fill="#149211"/>
<circle cx="1260.5" cy="200.5" r="7.5" fill="#FFC700"/>
<path d="M1390.65 166H1399.05V215H1389.39V176.22L1380.15 178.81L1377.77 170.55L1390.65 166ZM1405.96 215V207.79L1422.69 190.57C1426.42 186.65 1428.29 183.383 1428.29 180.77C1428.29 178.857 1427.68 177.317 1426.47 176.15C1425.3 174.983 1423.79 174.4 1421.92 174.4C1418.23 174.4 1415.5 176.313 1413.73 180.14L1405.61 175.38C1407.15 172.02 1409.37 169.453 1412.26 167.68C1415.15 165.907 1418.33 165.02 1421.78 165.02C1426.21 165.02 1430.02 166.42 1433.19 169.22C1436.36 171.973 1437.95 175.707 1437.95 180.42C1437.95 185.507 1435.27 190.733 1429.9 196.1L1420.31 205.69H1438.72V215H1405.96Z" fill="#666666"/>
<path d="M1349.82 236.4H1351.89V249H1350.27L1344.33 240.45V249H1342.26V236.4H1343.88L1349.82 244.95V236.4ZM1361.41 240H1363.35V249H1361.41V247.704C1360.68 248.724 1359.63 249.234 1358.26 249.234C1357.02 249.234 1355.97 248.778 1355.09 247.866C1354.21 246.942 1353.78 245.82 1353.78 244.5C1353.78 243.168 1354.21 242.046 1355.09 241.134C1355.97 240.222 1357.02 239.766 1358.26 239.766C1359.63 239.766 1360.68 240.27 1361.41 241.278V240ZM1356.53 246.57C1357.07 247.11 1357.75 247.38 1358.56 247.38C1359.38 247.38 1360.06 247.11 1360.6 246.57C1361.14 246.018 1361.41 245.328 1361.41 244.5C1361.41 243.672 1361.14 242.988 1360.6 242.448C1360.06 241.896 1359.38 241.62 1358.56 241.62C1357.75 241.62 1357.07 241.896 1356.53 242.448C1355.99 242.988 1355.72 243.672 1355.72 244.5C1355.72 245.328 1355.99 246.018 1356.53 246.57ZM1370.64 241.872H1368.41V246.192C1368.41 246.564 1368.49 246.834 1368.66 247.002C1368.83 247.158 1369.07 247.248 1369.4 247.272C1369.73 247.284 1370.15 247.278 1370.64 247.254V249C1369.15 249.18 1368.08 249.054 1367.44 248.622C1366.79 248.178 1366.46 247.368 1366.46 246.192V241.872H1364.81V240H1366.46V238.056L1368.41 237.48V240H1370.64V241.872ZM1374.24 238.29C1374 238.53 1373.71 238.65 1373.38 238.65C1373.04 238.65 1372.75 238.53 1372.49 238.29C1372.25 238.038 1372.13 237.744 1372.13 237.408C1372.13 237.072 1372.25 236.784 1372.49 236.544C1372.73 236.292 1373.03 236.166 1373.38 236.166C1373.72 236.166 1374.02 236.292 1374.26 236.544C1374.5 236.784 1374.62 237.072 1374.62 237.408C1374.62 237.744 1374.49 238.038 1374.24 238.29ZM1372.4 249V240H1374.35V249H1372.4ZM1380.85 249.234C1379.53 249.234 1378.41 248.778 1377.49 247.866C1376.56 246.954 1376.1 245.832 1376.1 244.5C1376.1 243.168 1376.56 242.046 1377.49 241.134C1378.41 240.222 1379.53 239.766 1380.85 239.766C1382.18 239.766 1383.31 240.222 1384.22 241.134C1385.14 242.046 1385.6 243.168 1385.6 244.5C1385.6 245.832 1385.14 246.954 1384.22 247.866C1383.31 248.778 1382.18 249.234 1380.85 249.234ZM1378.85 246.534C1379.39 247.074 1380.06 247.344 1380.85 247.344C1381.64 247.344 1382.31 247.074 1382.85 246.534C1383.39 245.994 1383.66 245.316 1383.66 244.5C1383.66 243.684 1383.39 243.006 1382.85 242.466C1382.31 241.926 1381.64 241.656 1380.85 241.656C1380.06 241.656 1379.39 241.926 1378.85 242.466C1378.31 243.006 1378.04 243.684 1378.04 244.5C1378.04 245.316 1378.31 245.994 1378.85 246.534ZM1392.1 239.766C1393.13 239.766 1393.96 240.096 1394.6 240.756C1395.23 241.416 1395.55 242.322 1395.55 243.474V249H1393.61V243.672C1393.61 243 1393.43 242.484 1393.07 242.124C1392.71 241.764 1392.22 241.584 1391.59 241.584C1390.91 241.584 1390.36 241.8 1389.94 242.232C1389.52 242.652 1389.31 243.3 1389.31 244.176V249H1387.36V240H1389.31V241.152C1389.89 240.228 1390.82 239.766 1392.1 239.766ZM1404.77 240H1406.72V249H1404.77V247.704C1404.04 248.724 1402.99 249.234 1401.62 249.234C1400.39 249.234 1399.33 248.778 1398.46 247.866C1397.58 246.942 1397.14 245.82 1397.14 244.5C1397.14 243.168 1397.58 242.046 1398.46 241.134C1399.33 240.222 1400.39 239.766 1401.62 239.766C1402.99 239.766 1404.04 240.27 1404.77 241.278V240ZM1399.9 246.57C1400.44 247.11 1401.11 247.38 1401.93 247.38C1402.75 247.38 1403.42 247.11 1403.96 246.57C1404.5 246.018 1404.77 245.328 1404.77 244.5C1404.77 243.672 1404.5 242.988 1403.96 242.448C1403.42 241.896 1402.75 241.62 1401.93 241.62C1401.11 241.62 1400.44 241.896 1399.9 242.448C1399.36 242.988 1399.09 243.672 1399.09 244.5C1399.09 245.328 1399.36 246.018 1399.9 246.57ZM1408.98 249V235.86H1410.93V249H1408.98ZM1426.02 249L1425.14 246.462H1419.77L1418.89 249H1416.64L1421.21 236.4H1423.7L1428.25 249H1426.02ZM1420.46 244.518H1424.45L1422.45 238.83L1420.46 244.518ZM1439.5 240H1441.55L1438.72 249H1436.81L1434.94 242.934L1433.05 249H1431.14L1428.32 240H1430.37L1432.12 246.21L1434.01 240H1435.86L1437.73 246.21L1439.5 240ZM1449.76 240H1451.7V249H1449.76V247.704C1449.02 248.724 1447.97 249.234 1446.61 249.234C1445.37 249.234 1444.31 248.778 1443.44 247.866C1442.56 246.942 1442.12 245.82 1442.12 244.5C1442.12 243.168 1442.56 242.046 1443.44 241.134C1444.31 240.222 1445.37 239.766 1446.61 239.766C1447.97 239.766 1449.02 240.27 1449.76 241.278V240ZM1444.88 246.57C1445.42 247.11 1446.1 247.38 1446.91 247.38C1447.73 247.38 1448.41 247.11 1448.95 246.57C1449.49 246.018 1449.76 245.328 1449.76 244.5C1449.76 243.672 1449.49 242.988 1448.95 242.448C1448.41 241.896 1447.73 241.62 1446.91 241.62C1446.1 241.62 1445.42 241.896 1444.88 242.448C1444.34 242.988 1444.07 243.672 1444.07 244.5C1444.07 245.328 1444.34 246.018 1444.88 246.57ZM1455.91 241.512C1456.4 240.396 1457.33 239.838 1458.68 239.838V241.944C1457.94 241.896 1457.29 242.076 1456.74 242.484C1456.19 242.88 1455.91 243.54 1455.91 244.464V249H1453.97V240H1455.91V241.512ZM1466.82 236.4H1468.77V249H1466.82V247.704C1466.09 248.724 1465.04 249.234 1463.67 249.234C1462.44 249.234 1461.38 248.778 1460.51 247.866C1459.63 246.942 1459.19 245.82 1459.19 244.5C1459.19 243.168 1459.63 242.046 1460.51 241.134C1461.38 240.222 1462.44 239.766 1463.67 239.766C1465.04 239.766 1466.09 240.27 1466.82 241.278V236.4ZM1461.95 246.57C1462.49 247.11 1463.16 247.38 1463.98 247.38C1464.8 247.38 1465.47 247.11 1466.01 246.57C1466.55 246.018 1466.82 245.328 1466.82 244.5C1466.82 243.672 1466.55 242.988 1466.01 242.448C1465.47 241.896 1464.8 241.62 1463.98 241.62C1463.16 241.62 1462.49 241.896 1461.95 242.448C1461.41 242.988 1461.14 243.672 1461.14 244.5C1461.14 245.328 1461.41 246.018 1461.95 246.57ZM1472.73 242.484C1472.73 242.784 1472.89 243.024 1473.21 243.204C1473.55 243.372 1473.95 243.522 1474.42 243.654C1474.9 243.774 1475.38 243.918 1475.86 244.086C1476.34 244.254 1476.74 244.542 1477.07 244.95C1477.4 245.346 1477.57 245.85 1477.57 246.462C1477.57 247.326 1477.23 248.004 1476.56 248.496C1475.9 248.988 1475.07 249.234 1474.06 249.234C1473.17 249.234 1472.41 249.048 1471.77 248.676C1471.14 248.304 1470.68 247.788 1470.39 247.128L1472.06 246.156C1472.37 247.02 1473.04 247.452 1474.06 247.452C1475.08 247.452 1475.59 247.116 1475.59 246.444C1475.59 246.156 1475.42 245.922 1475.09 245.742C1474.76 245.562 1474.36 245.412 1473.88 245.292C1473.41 245.16 1472.94 245.01 1472.46 244.842C1471.98 244.674 1471.57 244.398 1471.23 244.014C1470.91 243.618 1470.75 243.12 1470.75 242.52C1470.75 241.692 1471.06 241.026 1471.68 240.522C1472.32 240.018 1473.11 239.766 1474.04 239.766C1474.79 239.766 1475.45 239.934 1476.02 240.27C1476.61 240.594 1477.06 241.05 1477.37 241.638L1475.73 242.556C1475.42 241.872 1474.86 241.53 1474.04 241.53C1473.67 241.53 1473.36 241.614 1473.11 241.782C1472.85 241.938 1472.73 242.172 1472.73 242.484Z" fill="#666666"/>
<path d="M1101.66 189.52C1106.19 192.227 1108.45 196.17 1108.45 201.35C1108.45 205.877 1106.86 209.447 1103.69 212.06C1100.56 214.673 1096.29 215.98 1090.88 215.98C1085.42 215.98 1081.13 214.673 1078 212.06C1074.87 209.447 1073.31 205.877 1073.31 201.35C1073.31 196.17 1075.55 192.227 1080.03 189.52C1076.62 187.047 1074.92 183.663 1074.92 179.37C1074.92 174.843 1076.44 171.32 1079.47 168.8C1082.55 166.28 1086.35 165.02 1090.88 165.02C1095.41 165.02 1099.19 166.28 1102.22 168.8C1105.25 171.32 1106.77 174.843 1106.77 179.37C1106.77 183.71 1105.07 187.093 1101.66 189.52ZM1095.43 175.66C1094.26 174.633 1092.75 174.12 1090.88 174.12C1089.01 174.12 1087.5 174.633 1086.33 175.66C1085.16 176.687 1084.58 178.087 1084.58 179.86C1084.58 181.633 1085.16 183.057 1086.33 184.13C1087.5 185.157 1089.01 185.67 1090.88 185.67C1092.75 185.67 1094.26 185.157 1095.43 184.13C1096.6 183.057 1097.18 181.633 1097.18 179.86C1097.18 178.087 1096.6 176.687 1095.43 175.66ZM1085.07 205.13C1086.56 206.297 1088.5 206.88 1090.88 206.88C1093.26 206.88 1095.17 206.297 1096.62 205.13C1098.11 203.917 1098.86 202.237 1098.86 200.09C1098.86 197.99 1098.11 196.357 1096.62 195.19C1095.17 193.977 1093.26 193.37 1090.88 193.37C1088.5 193.37 1086.56 193.977 1085.07 195.19C1083.62 196.357 1082.9 197.99 1082.9 200.09C1082.9 202.237 1083.62 203.917 1085.07 205.13ZM1146 186.23V194.7H1134.45V206.25H1125.98V194.7H1114.5V186.23H1125.98V174.75H1134.45V186.23H1146Z" fill="#666666"/>
<path d="M1042.94 236.4L1038.55 243.996V249H1036.48V243.996L1032.09 236.4H1034.45L1037.53 241.98L1040.59 236.4H1042.94ZM1043.91 245.328C1044.05 246.012 1044.38 246.54 1044.9 246.912C1045.42 247.272 1046.05 247.452 1046.79 247.452C1047.82 247.452 1048.6 247.08 1049.11 246.336L1050.71 247.272C1049.83 248.58 1048.51 249.234 1046.77 249.234C1045.31 249.234 1044.13 248.79 1043.23 247.902C1042.33 247.002 1041.88 245.868 1041.88 244.5C1041.88 243.156 1042.32 242.034 1043.21 241.134C1044.1 240.222 1045.24 239.766 1046.63 239.766C1047.95 239.766 1049.03 240.228 1049.87 241.152C1050.72 242.076 1051.15 243.198 1051.15 244.518C1051.15 244.722 1051.12 244.992 1051.07 245.328H1043.91ZM1043.89 243.744H1049.18C1049.05 243.012 1048.75 242.46 1048.27 242.088C1047.8 241.716 1047.25 241.53 1046.61 241.53C1045.89 241.53 1045.29 241.728 1044.81 242.124C1044.33 242.52 1044.02 243.06 1043.89 243.744ZM1059.93 240H1061.88V249H1059.93V247.704C1059.2 248.724 1058.15 249.234 1056.78 249.234C1055.55 249.234 1054.49 248.778 1053.61 247.866C1052.74 246.942 1052.3 245.82 1052.3 244.5C1052.3 243.168 1052.74 242.046 1053.61 241.134C1054.49 240.222 1055.55 239.766 1056.78 239.766C1058.15 239.766 1059.2 240.27 1059.93 241.278V240ZM1055.05 246.57C1055.59 247.11 1056.27 247.38 1057.09 247.38C1057.9 247.38 1058.58 247.11 1059.12 246.57C1059.66 246.018 1059.93 245.328 1059.93 244.5C1059.93 243.672 1059.66 242.988 1059.12 242.448C1058.58 241.896 1057.9 241.62 1057.09 241.62C1056.27 241.62 1055.59 241.896 1055.05 242.448C1054.51 242.988 1054.24 243.672 1054.24 244.5C1054.24 245.328 1054.51 246.018 1055.05 246.57ZM1066.09 241.512C1066.58 240.396 1067.5 239.838 1068.86 239.838V241.944C1068.11 241.896 1067.47 242.076 1066.91 242.484C1066.36 242.88 1066.09 243.54 1066.09 244.464V249H1064.14V240H1066.09V241.512ZM1071.72 242.484C1071.72 242.784 1071.89 243.024 1072.21 243.204C1072.55 243.372 1072.95 243.522 1073.42 243.654C1073.9 243.774 1074.38 243.918 1074.86 244.086C1075.34 244.254 1075.74 244.542 1076.06 244.95C1076.4 245.346 1076.57 245.85 1076.57 246.462C1076.57 247.326 1076.23 248.004 1075.56 248.496C1074.9 248.988 1074.06 249.234 1073.06 249.234C1072.17 249.234 1071.41 249.048 1070.77 248.676C1070.13 248.304 1069.67 247.788 1069.38 247.128L1071.06 246.156C1071.37 247.02 1072.04 247.452 1073.06 247.452C1074.08 247.452 1074.59 247.116 1074.59 246.444C1074.59 246.156 1074.42 245.922 1074.08 245.742C1073.76 245.562 1073.36 245.412 1072.88 245.292C1072.41 245.16 1071.93 245.01 1071.45 244.842C1070.97 244.674 1070.57 244.398 1070.23 244.014C1069.91 243.618 1069.74 243.12 1069.74 242.52C1069.74 241.692 1070.06 241.026 1070.68 240.522C1071.32 240.018 1072.1 239.766 1073.04 239.766C1073.78 239.766 1074.44 239.934 1075.02 240.27C1075.61 240.594 1076.06 241.05 1076.37 241.638L1074.73 242.556C1074.42 241.872 1073.85 241.53 1073.04 241.53C1072.67 241.53 1072.35 241.614 1072.1 241.782C1071.85 241.938 1071.72 242.172 1071.72 242.484ZM1093.43 247.344C1092.17 248.604 1090.63 249.234 1088.8 249.234C1086.98 249.234 1085.43 248.604 1084.16 247.344C1082.9 246.072 1082.27 244.524 1082.27 242.7C1082.27 240.876 1082.9 239.334 1084.16 238.074C1085.43 236.802 1086.98 236.166 1088.8 236.166C1090.63 236.166 1092.17 236.802 1093.43 238.074C1094.7 239.334 1095.34 240.876 1095.34 242.7C1095.34 244.524 1094.7 246.072 1093.43 247.344ZM1085.62 245.94C1086.48 246.792 1087.54 247.218 1088.8 247.218C1090.06 247.218 1091.12 246.792 1091.97 245.94C1092.84 245.076 1093.27 243.996 1093.27 242.7C1093.27 241.404 1092.84 240.33 1091.97 239.478C1091.12 238.614 1090.06 238.182 1088.8 238.182C1087.54 238.182 1086.48 238.614 1085.62 239.478C1084.77 240.33 1084.34 241.404 1084.34 242.7C1084.34 243.996 1084.77 245.076 1085.62 245.94ZM1101.82 238.038C1100.4 237.906 1099.69 238.5 1099.69 239.82V240H1101.82V241.872H1099.69V249H1097.75V241.872H1096.38V240H1097.75V239.82C1097.75 238.584 1098.09 237.648 1098.77 237.012C1099.47 236.364 1100.48 236.082 1101.82 236.166V238.038ZM1109.65 247.02H1115.23V249H1107.58V236.4H1115.14V238.38H1109.65V241.656H1114.69V243.618H1109.65V247.02ZM1125.05 249H1122.8L1120.56 245.922L1118.31 249H1116.05L1119.43 244.374L1116.23 240H1118.48L1120.55 242.844L1122.62 240H1124.88L1121.68 244.392L1125.05 249ZM1131.44 239.766C1132.68 239.766 1133.74 240.228 1134.61 241.152C1135.49 242.064 1135.93 243.18 1135.93 244.5C1135.93 245.832 1135.49 246.954 1134.61 247.866C1133.74 248.778 1132.68 249.234 1131.44 249.234C1130.08 249.234 1129.03 248.73 1128.29 247.722V252.6H1126.35V240H1128.29V241.296C1129.03 240.276 1130.08 239.766 1131.44 239.766ZM1129.1 246.57C1129.64 247.11 1130.32 247.38 1131.14 247.38C1131.95 247.38 1132.63 247.11 1133.17 246.57C1133.71 246.018 1133.98 245.328 1133.98 244.5C1133.98 243.672 1133.71 242.988 1133.17 242.448C1132.63 241.896 1131.95 241.62 1131.14 241.62C1130.32 241.62 1129.64 241.896 1129.1 242.448C1128.56 242.988 1128.29 243.672 1128.29 244.5C1128.29 245.328 1128.56 246.018 1129.1 246.57ZM1139.22 245.328C1139.36 246.012 1139.69 246.54 1140.21 246.912C1140.72 247.272 1141.35 247.452 1142.1 247.452C1143.13 247.452 1143.9 247.08 1144.42 246.336L1146.02 247.272C1145.13 248.58 1143.82 249.234 1142.08 249.234C1140.62 249.234 1139.43 248.79 1138.53 247.902C1137.63 247.002 1137.18 245.868 1137.18 244.5C1137.18 243.156 1137.63 242.034 1138.52 241.134C1139.4 240.222 1140.54 239.766 1141.94 239.766C1143.26 239.766 1144.34 240.228 1145.18 241.152C1146.03 242.076 1146.45 243.198 1146.45 244.518C1146.45 244.722 1146.43 244.992 1146.38 245.328H1139.22ZM1139.2 243.744H1144.49C1144.36 243.012 1144.05 242.46 1143.57 242.088C1143.11 241.716 1142.55 241.53 1141.92 241.53C1141.2 241.53 1140.6 241.728 1140.12 242.124C1139.64 242.52 1139.33 243.06 1139.2 243.744ZM1150.11 241.512C1150.6 240.396 1151.53 239.838 1152.88 239.838V241.944C1152.14 241.896 1151.49 242.076 1150.94 242.484C1150.39 242.88 1150.11 243.54 1150.11 244.464V249H1148.17V240H1150.11V241.512ZM1156.15 238.29C1155.91 238.53 1155.63 238.65 1155.29 238.65C1154.95 238.65 1154.66 238.53 1154.41 238.29C1154.17 238.038 1154.05 237.744 1154.05 237.408C1154.05 237.072 1154.17 236.784 1154.41 236.544C1154.65 236.292 1154.94 236.166 1155.29 236.166C1155.64 236.166 1155.93 236.292 1156.17 236.544C1156.41 236.784 1156.53 237.072 1156.53 237.408C1156.53 237.744 1156.41 238.038 1156.15 238.29ZM1154.32 249V240H1156.26V249H1154.32ZM1163.25 239.766C1164.28 239.766 1165.12 240.096 1165.75 240.756C1166.39 241.416 1166.71 242.322 1166.71 243.474V249H1164.76V243.672C1164.76 243 1164.58 242.484 1164.22 242.124C1163.86 241.764 1163.37 241.584 1162.75 241.584C1162.06 241.584 1161.51 241.8 1161.09 242.232C1160.67 242.652 1160.46 243.3 1160.46 244.176V249H1158.52V240H1160.46V241.152C1161.05 240.228 1161.98 239.766 1163.25 239.766ZM1173.05 249.234C1171.69 249.234 1170.56 248.778 1169.65 247.866C1168.75 246.954 1168.3 245.832 1168.3 244.5C1168.3 243.156 1168.75 242.034 1169.65 241.134C1170.56 240.222 1171.69 239.766 1173.05 239.766C1173.93 239.766 1174.72 239.976 1175.44 240.396C1176.16 240.816 1176.7 241.38 1177.06 242.088L1175.39 243.06C1175.19 242.628 1174.87 242.292 1174.45 242.052C1174.05 241.8 1173.57 241.674 1173.03 241.674C1172.24 241.674 1171.57 241.944 1171.03 242.484C1170.51 243.024 1170.24 243.696 1170.24 244.5C1170.24 245.304 1170.51 245.976 1171.03 246.516C1171.57 247.056 1172.24 247.326 1173.03 247.326C1173.56 247.326 1174.03 247.2 1174.45 246.948C1174.89 246.696 1175.21 246.36 1175.43 245.94L1177.1 246.894C1176.72 247.614 1176.16 248.184 1175.44 248.604C1174.72 249.024 1173.93 249.234 1173.05 249.234ZM1179.89 245.328C1180.04 246.012 1180.37 246.54 1180.88 246.912C1181.4 247.272 1182.03 247.452 1182.77 247.452C1183.81 247.452 1184.58 247.08 1185.1 246.336L1186.7 247.272C1185.81 248.58 1184.5 249.234 1182.76 249.234C1181.29 249.234 1180.11 248.79 1179.21 247.902C1178.31 247.002 1177.86 245.868 1177.86 244.5C1177.86 243.156 1178.3 242.034 1179.19 241.134C1180.08 240.222 1181.22 239.766 1182.61 239.766C1183.93 239.766 1185.01 240.228 1185.85 241.152C1186.7 242.076 1187.13 243.198 1187.13 244.518C1187.13 244.722 1187.11 244.992 1187.06 245.328H1179.89ZM1179.88 243.744H1185.17C1185.04 243.012 1184.73 242.46 1184.25 242.088C1183.78 241.716 1183.23 241.53 1182.59 241.53C1181.87 241.53 1181.27 241.728 1180.79 242.124C1180.31 242.52 1180.01 243.06 1179.88 243.744Z" fill="#666666"/>
<path d="M777.65 166H786.05V215H776.39V176.22L767.15 178.81L764.77 170.55L777.65 166ZM804.72 166H813.12V215H803.46V176.22L794.22 178.81L791.84 170.55L804.72 166ZM837.741 183.85C842.454 183.85 846.421 185.273 849.641 188.12C852.861 190.92 854.471 194.84 854.471 199.88C854.471 204.92 852.767 208.863 849.361 211.71C846.001 214.557 841.871 215.98 836.971 215.98C833.004 215.98 829.504 215.093 826.471 213.32C823.437 211.547 821.244 208.933 819.891 205.48L828.151 200.65C829.364 204.57 832.304 206.53 836.971 206.53C839.444 206.53 841.357 205.947 842.711 204.78C844.111 203.567 844.811 201.933 844.811 199.88C844.811 197.873 844.134 196.263 842.781 195.05C841.427 193.837 839.584 193.23 837.251 193.23H822.411L824.371 166H852.161V175.03H833.331L832.701 183.85H837.741Z" fill="#666666"/>
<path d="M761.904 236.4C763.092 236.4 764.082 236.796 764.874 237.588C765.678 238.38 766.08 239.364 766.08 240.54C766.08 241.704 765.678 242.688 764.874 243.492C764.082 244.284 763.092 244.68 761.904 244.68H759.33V249H757.26V236.4H761.904ZM761.904 242.736C762.516 242.736 763.02 242.532 763.416 242.124C763.812 241.704 764.01 241.176 764.01 240.54C764.01 239.904 763.812 239.382 763.416 238.974C763.02 238.554 762.516 238.344 761.904 238.344H759.33V242.736H761.904ZM769.519 241.512C770.011 240.396 770.935 239.838 772.291 239.838V241.944C771.547 241.896 770.899 242.076 770.347 242.484C769.795 242.88 769.519 243.54 769.519 244.464V249H767.575V240H769.519V241.512ZM777.554 249.234C776.234 249.234 775.112 248.778 774.188 247.866C773.264 246.954 772.802 245.832 772.802 244.5C772.802 243.168 773.264 242.046 774.188 241.134C775.112 240.222 776.234 239.766 777.554 239.766C778.886 239.766 780.008 240.222 780.92 241.134C781.844 242.046 782.306 243.168 782.306 244.5C782.306 245.832 781.844 246.954 780.92 247.866C780.008 248.778 778.886 249.234 777.554 249.234ZM775.556 246.534C776.096 247.074 776.762 247.344 777.554 247.344C778.346 247.344 779.012 247.074 779.552 246.534C780.092 245.994 780.362 245.316 780.362 244.5C780.362 243.684 780.092 243.006 779.552 242.466C779.012 241.926 778.346 241.656 777.554 241.656C776.762 241.656 776.096 241.926 775.556 242.466C775.016 243.006 774.746 243.684 774.746 244.5C774.746 245.316 775.016 245.994 775.556 246.534ZM785.96 238.29C785.72 238.53 785.432 238.65 785.096 238.65C784.76 238.65 784.466 238.53 784.214 238.29C783.974 238.038 783.854 237.744 783.854 237.408C783.854 237.072 783.974 236.784 784.214 236.544C784.466 236.292 784.76 236.166 785.096 236.166C785.432 236.166 785.72 236.292 785.96 236.544C786.212 236.784 786.338 237.072 786.338 237.408C786.338 237.744 786.212 238.038 785.96 238.29ZM784.124 249.36V240H786.068V249.36C786.068 251.856 784.838 253.014 782.378 252.834V250.962C782.978 251.022 783.416 250.926 783.692 250.674C783.98 250.422 784.124 249.984 784.124 249.36ZM789.865 245.328C790.009 246.012 790.339 246.54 790.855 246.912C791.371 247.272 792.001 247.452 792.745 247.452C793.777 247.452 794.551 247.08 795.067 246.336L796.669 247.272C795.781 248.58 794.467 249.234 792.727 249.234C791.263 249.234 790.081 248.79 789.181 247.902C788.281 247.002 787.831 245.868 787.831 244.5C787.831 243.156 788.275 242.034 789.163 241.134C790.051 240.222 791.191 239.766 792.583 239.766C793.903 239.766 794.983 240.228 795.823 241.152C796.675 242.076 797.101 243.198 797.101 244.518C797.101 244.722 797.077 244.992 797.029 245.328H789.865ZM789.847 243.744H795.139C795.007 243.012 794.701 242.46 794.221 242.088C793.753 241.716 793.201 241.53 792.565 241.53C791.845 241.53 791.245 241.728 790.765 242.124C790.285 242.52 789.979 243.06 789.847 243.744ZM803.007 249.234C801.651 249.234 800.517 248.778 799.605 247.866C798.705 246.954 798.255 245.832 798.255 244.5C798.255 243.156 798.705 242.034 799.605 241.134C800.517 240.222 801.651 239.766 803.007 239.766C803.883 239.766 804.681 239.976 805.401 240.396C806.121 240.816 806.661 241.38 807.021 242.088L805.347 243.06C805.143 242.628 804.831 242.292 804.411 242.052C804.003 241.8 803.529 241.674 802.989 241.674C802.197 241.674 801.531 241.944 800.991 242.484C800.463 243.024 800.199 243.696 800.199 244.5C800.199 245.304 800.463 245.976 800.991 246.516C801.531 247.056 802.197 247.326 802.989 247.326C803.517 247.326 803.991 247.2 804.411 246.948C804.843 246.696 805.167 246.36 805.383 245.94L807.057 246.894C806.673 247.614 806.121 248.184 805.401 248.604C804.681 249.024 803.883 249.234 803.007 249.234ZM813.484 241.872H811.252V246.192C811.252 246.564 811.336 246.834 811.504 247.002C811.672 247.158 811.918 247.248 812.242 247.272C812.578 247.284 812.992 247.278 813.484 247.254V249C811.996 249.18 810.928 249.054 810.28 248.622C809.632 248.178 809.308 247.368 809.308 246.192V241.872H807.652V240H809.308V238.056L811.252 237.48V240H813.484V241.872ZM824.911 236.4C826.639 236.4 828.073 237.006 829.213 238.218C830.365 239.43 830.941 240.924 830.941 242.7C830.941 244.464 830.365 245.958 829.213 247.182C828.073 248.394 826.639 249 824.911 249H819.961V236.4H824.911ZM824.911 247.02C826.099 247.02 827.065 246.612 827.809 245.796C828.565 244.98 828.943 243.948 828.943 242.7C828.943 241.44 828.565 240.408 827.809 239.604C827.065 238.788 826.099 238.38 824.911 238.38H822.031V247.02H824.911ZM836.95 249.234C835.63 249.234 834.508 248.778 833.584 247.866C832.66 246.954 832.198 245.832 832.198 244.5C832.198 243.168 832.66 242.046 833.584 241.134C834.508 240.222 835.63 239.766 836.95 239.766C838.282 239.766 839.404 240.222 840.316 241.134C841.24 242.046 841.702 243.168 841.702 244.5C841.702 245.832 841.24 246.954 840.316 247.866C839.404 248.778 838.282 249.234 836.95 249.234ZM834.952 246.534C835.492 247.074 836.158 247.344 836.95 247.344C837.742 247.344 838.408 247.074 838.948 246.534C839.488 245.994 839.758 245.316 839.758 244.5C839.758 243.684 839.488 243.006 838.948 242.466C838.408 241.926 837.742 241.656 836.95 241.656C836.158 241.656 835.492 241.926 834.952 242.466C834.412 243.006 834.142 243.684 834.142 244.5C834.142 245.316 834.412 245.994 834.952 246.534ZM848.194 239.766C849.226 239.766 850.06 240.096 850.696 240.756C851.332 241.416 851.65 242.322 851.65 243.474V249H849.706V243.672C849.706 243 849.526 242.484 849.166 242.124C848.806 241.764 848.314 241.584 847.69 241.584C847.006 241.584 846.454 241.8 846.034 242.232C845.614 242.652 845.404 243.3 845.404 244.176V249H843.46V240H845.404V241.152C845.992 240.228 846.922 239.766 848.194 239.766ZM855.273 245.328C855.417 246.012 855.747 246.54 856.263 246.912C856.779 247.272 857.409 247.452 858.153 247.452C859.185 247.452 859.959 247.08 860.475 246.336L862.077 247.272C861.189 248.58 859.875 249.234 858.135 249.234C856.671 249.234 855.489 248.79 854.589 247.902C853.689 247.002 853.239 245.868 853.239 244.5C853.239 243.156 853.683 242.034 854.571 241.134C855.459 240.222 856.599 239.766 857.991 239.766C859.311 239.766 860.391 240.228 861.231 241.152C862.083 242.076 862.509 243.198 862.509 244.518C862.509 244.722 862.485 244.992 862.437 245.328H855.273ZM855.255 243.744H860.547C860.415 243.012 860.109 242.46 859.629 242.088C859.161 241.716 858.609 241.53 857.973 241.53C857.253 241.53 856.653 241.728 856.173 242.124C855.693 242.52 855.387 243.06 855.255 243.744Z" fill="#666666"/>
<path d="M509.1 182.03C509.1 185.81 508.12 189.123 506.16 191.97H506.23L490.97 215H479.91L490.83 199.04C485.743 198.947 481.59 197.337 478.37 194.21C475.197 191.037 473.61 186.977 473.61 182.03C473.61 177.037 475.243 172.953 478.51 169.78C481.823 166.607 486.093 165.02 491.32 165.02C496.593 165.02 500.863 166.607 504.13 169.78C507.443 172.907 509.1 176.99 509.1 182.03ZM483.2 182.03C483.2 184.457 483.97 186.393 485.51 187.84C487.097 189.287 489.033 190.01 491.32 190.01C493.7 190.01 495.66 189.287 497.2 187.84C498.74 186.393 499.51 184.457 499.51 182.03C499.51 179.603 498.74 177.69 497.2 176.29C495.66 174.843 493.7 174.12 491.32 174.12C489.033 174.12 487.097 174.843 485.51 176.29C483.97 177.737 483.2 179.65 483.2 182.03ZM527.557 183.85C532.27 183.85 536.237 185.273 539.457 188.12C542.677 190.92 544.287 194.84 544.287 199.88C544.287 204.92 542.584 208.863 539.177 211.71C535.817 214.557 531.687 215.98 526.787 215.98C522.82 215.98 519.32 215.093 516.287 213.32C513.254 211.547 511.06 208.933 509.707 205.48L517.967 200.65C519.18 204.57 522.12 206.53 526.787 206.53C529.26 206.53 531.174 205.947 532.527 204.78C533.927 203.567 534.627 201.933 534.627 199.88C534.627 197.873 533.95 196.263 532.597 195.05C531.244 193.837 529.4 193.23 527.067 193.23H512.227L514.187 166H541.977V175.03H523.147L522.517 183.85H527.557Z" fill="#666666"/>
<path d="M459.73 236.4H461.8V249H459.73V243.546H454.33V249H452.26V236.4H454.33V241.566H459.73V236.4ZM471.321 240H473.265V249H471.321V247.704C470.589 248.724 469.539 249.234 468.171 249.234C466.935 249.234 465.879 248.778 465.003 247.866C464.127 246.942 463.689 245.82 463.689 244.5C463.689 243.168 464.127 242.046 465.003 241.134C465.879 240.222 466.935 239.766 468.171 239.766C469.539 239.766 470.589 240.27 471.321 241.278V240ZM466.443 246.57C466.983 247.11 467.661 247.38 468.477 247.38C469.293 247.38 469.971 247.11 470.511 246.57C471.051 246.018 471.321 245.328 471.321 244.5C471.321 243.672 471.051 242.988 470.511 242.448C469.971 241.896 469.293 241.62 468.477 241.62C467.661 241.62 466.983 241.896 466.443 242.448C465.903 242.988 465.633 243.672 465.633 244.5C465.633 245.328 465.903 246.018 466.443 246.57ZM480.624 239.766C481.86 239.766 482.916 240.228 483.792 241.152C484.668 242.064 485.106 243.18 485.106 244.5C485.106 245.832 484.668 246.954 483.792 247.866C482.916 248.778 481.86 249.234 480.624 249.234C479.256 249.234 478.206 248.73 477.474 247.722V252.6H475.53V240H477.474V241.296C478.206 240.276 479.256 239.766 480.624 239.766ZM478.284 246.57C478.824 247.11 479.502 247.38 480.318 247.38C481.134 247.38 481.812 247.11 482.352 246.57C482.892 246.018 483.162 245.328 483.162 244.5C483.162 243.672 482.892 242.988 482.352 242.448C481.812 241.896 481.134 241.62 480.318 241.62C479.502 241.62 478.824 241.896 478.284 242.448C477.744 242.988 477.474 243.672 477.474 244.5C477.474 245.328 477.744 246.018 478.284 246.57ZM491.962 239.766C493.198 239.766 494.254 240.228 495.13 241.152C496.006 242.064 496.444 243.18 496.444 244.5C496.444 245.832 496.006 246.954 495.13 247.866C494.254 248.778 493.198 249.234 491.962 249.234C490.594 249.234 489.544 248.73 488.812 247.722V252.6H486.868V240H488.812V241.296C489.544 240.276 490.594 239.766 491.962 239.766ZM489.622 246.57C490.162 247.11 490.84 247.38 491.656 247.38C492.472 247.38 493.15 247.11 493.69 246.57C494.23 246.018 494.5 245.328 494.5 244.5C494.5 243.672 494.23 242.988 493.69 242.448C493.15 241.896 492.472 241.62 491.656 241.62C490.84 241.62 490.162 241.896 489.622 242.448C489.082 242.988 488.812 243.672 488.812 244.5C488.812 245.328 489.082 246.018 489.622 246.57ZM503.921 240H505.991L502.535 249.288C501.671 251.616 500.207 252.72 498.143 252.6V250.782C498.755 250.818 499.247 250.686 499.619 250.386C499.991 250.098 500.297 249.642 500.537 249.018L500.627 248.838L496.811 240H498.935L501.617 246.534L503.921 240ZM517.79 249.234C515.894 249.234 514.322 248.61 513.074 247.362C511.826 246.102 511.202 244.548 511.202 242.7C511.202 240.852 511.826 239.304 513.074 238.056C514.322 236.796 515.894 236.166 517.79 236.166C518.93 236.166 519.98 236.436 520.94 236.976C521.912 237.516 522.668 238.248 523.208 239.172L521.408 240.216C521.072 239.592 520.58 239.1 519.932 238.74C519.296 238.368 518.582 238.182 517.79 238.182C516.446 238.182 515.354 238.608 514.514 239.46C513.686 240.312 513.272 241.392 513.272 242.7C513.272 244.008 513.686 245.088 514.514 245.94C515.354 246.792 516.446 247.218 517.79 247.218C518.582 247.218 519.302 247.038 519.95 246.678C520.598 246.306 521.084 245.808 521.408 245.184L523.208 246.21C522.68 247.134 521.93 247.872 520.958 248.424C519.998 248.964 518.942 249.234 517.79 249.234ZM524.89 249V235.86H526.834V249H524.89ZM530.927 238.29C530.687 238.53 530.399 238.65 530.063 238.65C529.727 238.65 529.433 238.53 529.181 238.29C528.941 238.038 528.821 237.744 528.821 237.408C528.821 237.072 528.941 236.784 529.181 236.544C529.421 236.292 529.715 236.166 530.063 236.166C530.411 236.166 530.705 236.292 530.945 236.544C531.185 236.784 531.305 237.072 531.305 237.408C531.305 237.744 531.179 238.038 530.927 238.29ZM529.091 249V240H531.035V249H529.091ZM534.822 245.328C534.966 246.012 535.296 246.54 535.812 246.912C536.328 247.272 536.958 247.452 537.702 247.452C538.734 247.452 539.508 247.08 540.024 246.336L541.626 247.272C540.738 248.58 539.424 249.234 537.684 249.234C536.22 249.234 535.038 248.79 534.138 247.902C533.238 247.002 532.788 245.868 532.788 244.5C532.788 243.156 533.232 242.034 534.12 241.134C535.008 240.222 536.148 239.766 537.54 239.766C538.86 239.766 539.94 240.228 540.78 241.152C541.632 242.076 542.058 243.198 542.058 244.518C542.058 244.722 542.034 244.992 541.986 245.328H534.822ZM534.804 243.744H540.096C539.964 243.012 539.658 242.46 539.178 242.088C538.71 241.716 538.158 241.53 537.522 241.53C536.802 241.53 536.202 241.728 535.722 242.124C535.242 242.52 534.936 243.06 534.804 243.744ZM548.503 239.766C549.535 239.766 550.369 240.096 551.005 240.756C551.641 241.416 551.959 242.322 551.959 243.474V249H550.015V243.672C550.015 243 549.835 242.484 549.475 242.124C549.115 241.764 548.623 241.584 547.999 241.584C547.315 241.584 546.763 241.8 546.343 242.232C545.923 242.652 545.713 243.3 545.713 244.176V249H543.769V240H545.713V241.152C546.301 240.228 547.231 239.766 548.503 239.766ZM559.074 241.872H556.842V246.192C556.842 246.564 556.926 246.834 557.094 247.002C557.262 247.158 557.508 247.248 557.832 247.272C558.168 247.284 558.582 247.278 559.074 247.254V249C557.586 249.18 556.518 249.054 555.87 248.622C555.222 248.178 554.898 247.368 554.898 246.192V241.872H553.242V240H554.898V238.056L556.842 237.48V240H559.074V241.872ZM562.249 242.484C562.249 242.784 562.411 243.024 562.735 243.204C563.071 243.372 563.473 243.522 563.941 243.654C564.421 243.774 564.901 243.918 565.381 244.086C565.861 244.254 566.263 244.542 566.587 244.95C566.923 245.346 567.091 245.85 567.091 246.462C567.091 247.326 566.755 248.004 566.083 248.496C565.423 248.988 564.589 249.234 563.581 249.234C562.693 249.234 561.931 249.048 561.295 248.676C560.659 248.304 560.197 247.788 559.909 247.128L561.583 246.156C561.895 247.02 562.561 247.452 563.581 247.452C564.601 247.452 565.111 247.116 565.111 246.444C565.111 246.156 564.943 245.922 564.607 245.742C564.283 245.562 563.881 245.412 563.401 245.292C562.933 245.16 562.459 245.01 561.979 244.842C561.499 244.674 561.091 244.398 560.755 244.014C560.431 243.618 560.269 243.12 560.269 242.52C560.269 241.692 560.581 241.026 561.205 240.522C561.841 240.018 562.627 239.766 563.563 239.766C564.307 239.766 564.967 239.934 565.543 240.27C566.131 240.594 566.581 241.05 566.893 241.638L565.255 242.556C564.943 241.872 564.379 241.53 563.563 241.53C563.191 241.53 562.879 241.614 562.627 241.782C562.375 241.938 562.249 242.172 562.249 242.484Z" fill="#666666"/>
</svg>
