<svg width="543" height="386" viewBox="0 0 543 386" fill="none" xmlns="http://www.w3.org/2000/svg">
<g filter="url(#filter0_d_4_55)">
<rect x="23" y="324" width="140" height="50" rx="25" fill="#F25822"/>
</g>
<path d="M62.56 353.21C61.52 353.21 60.645 352.98 59.935 352.52C59.225 352.05 58.725 351.415 58.435 350.615L60.205 349.58C60.615 350.65 61.42 351.185 62.62 351.185C63.2 351.185 63.625 351.08 63.895 350.87C64.165 350.66 64.3 350.395 64.3 350.075C64.3 349.705 64.135 349.42 63.805 349.22C63.475 349.01 62.885 348.785 62.035 348.545C61.565 348.405 61.165 348.265 60.835 348.125C60.515 347.985 60.19 347.8 59.86 347.57C59.54 347.33 59.295 347.03 59.125 346.67C58.955 346.31 58.87 345.89 58.87 345.41C58.87 344.46 59.205 343.705 59.875 343.145C60.555 342.575 61.37 342.29 62.32 342.29C63.17 342.29 63.915 342.5 64.555 342.92C65.205 343.33 65.71 343.905 66.07 344.645L64.33 345.65C63.91 344.75 63.24 344.3 62.32 344.3C61.89 344.3 61.55 344.4 61.3 344.6C61.06 344.79 60.94 345.04 60.94 345.35C60.94 345.68 61.075 345.95 61.345 346.16C61.625 346.36 62.155 346.58 62.935 346.82C63.255 346.92 63.495 347 63.655 347.06C63.825 347.11 64.05 347.195 64.33 347.315C64.62 347.425 64.84 347.53 64.99 347.63C65.15 347.73 65.33 347.865 65.53 348.035C65.73 348.205 65.88 348.38 65.98 348.56C66.09 348.74 66.18 348.96 66.25 349.22C66.33 349.47 66.37 349.745 66.37 350.045C66.37 351.015 66.015 351.785 65.305 352.355C64.605 352.925 63.69 353.21 62.56 353.21ZM71.7004 347.36H70.0054V350.48C70.0054 350.74 70.0704 350.93 70.2004 351.05C70.3304 351.17 70.5204 351.24 70.7704 351.26C71.0204 351.27 71.3304 351.265 71.7004 351.245V353C70.3704 353.15 69.4304 353.025 68.8804 352.625C68.3404 352.225 68.0704 351.51 68.0704 350.48V347.36H66.7654V345.5H68.0704V343.985L70.0054 343.4V345.5H71.7004V347.36ZM78.5303 345.5H80.4653V353H78.5303V352.115C77.9503 352.845 77.1353 353.21 76.0853 353.21C75.0853 353.21 74.2253 352.83 73.5053 352.07C72.7953 351.3 72.4403 350.36 72.4403 349.25C72.4403 348.14 72.7953 347.205 73.5053 346.445C74.2253 345.675 75.0853 345.29 76.0853 345.29C77.1353 345.29 77.9503 345.655 78.5303 346.385V345.5ZM74.9603 350.78C75.3503 351.17 75.8453 351.365 76.4453 351.365C77.0453 351.365 77.5403 351.17 77.9303 350.78C78.3303 350.38 78.5303 349.87 78.5303 349.25C78.5303 348.63 78.3303 348.125 77.9303 347.735C77.5403 347.335 77.0453 347.135 76.4453 347.135C75.8453 347.135 75.3503 347.335 74.9603 347.735C74.5703 348.125 74.3753 348.63 74.3753 349.25C74.3753 349.87 74.5703 350.38 74.9603 350.78ZM84.155 346.79C84.335 346.31 84.63 345.95 85.04 345.71C85.46 345.47 85.925 345.35 86.435 345.35V347.51C85.845 347.44 85.315 347.56 84.845 347.87C84.385 348.18 84.155 348.695 84.155 349.415V353H82.22V345.5H84.155V346.79ZM92.0617 347.36H90.3667V350.48C90.3667 350.74 90.4317 350.93 90.5617 351.05C90.6917 351.17 90.8817 351.24 91.1317 351.26C91.3817 351.27 91.6917 351.265 92.0617 351.245V353C90.7317 353.15 89.7917 353.025 89.2417 352.625C88.7017 352.225 88.4317 351.51 88.4317 350.48V347.36H87.1267V345.5H88.4317V343.985L90.3667 343.4V345.5H92.0617V347.36ZM103.458 342.5H105.528V353H103.953L99.4532 346.58V353H97.3832V342.5H98.9582L103.458 348.905V342.5ZM113.776 352.07C113.006 352.83 112.066 353.21 110.956 353.21C109.846 353.21 108.906 352.83 108.136 352.07C107.376 351.3 106.996 350.36 106.996 349.25C106.996 348.14 107.376 347.205 108.136 346.445C108.906 345.675 109.846 345.29 110.956 345.29C112.066 345.29 113.006 345.675 113.776 346.445C114.546 347.205 114.931 348.14 114.931 349.25C114.931 350.36 114.546 351.3 113.776 352.07ZM109.501 350.735C109.891 351.125 110.376 351.32 110.956 351.32C111.536 351.32 112.021 351.125 112.411 350.735C112.801 350.345 112.996 349.85 112.996 349.25C112.996 348.65 112.801 348.155 112.411 347.765C112.021 347.375 111.536 347.18 110.956 347.18C110.376 347.18 109.891 347.375 109.501 347.765C109.121 348.155 108.931 348.65 108.931 349.25C108.931 349.85 109.121 350.345 109.501 350.735ZM124.444 345.5H126.499L124.114 353H122.269L120.889 348.455L119.509 353H117.664L115.279 345.5H117.334L118.609 350.105L119.974 345.5H121.804L123.169 350.12L124.444 345.5Z" fill="white"/>
<path d="M209.5 347.268C210.833 348.038 210.833 349.962 209.5 350.732L204.25 353.763C202.917 354.533 201.25 353.571 201.25 352.031L201.25 345.969C201.25 344.429 202.917 343.467 204.25 344.237L209.5 347.268Z" fill="#F25822"/>
<circle cx="205" cy="349" r="13.5" stroke="#DDDDDD" stroke-width="3"/>
<path d="M238.165 353L235.225 342.5H237.4L239.41 350.285L241.6 342.5H243.37L245.575 350.285L247.585 342.5H249.76L246.82 353H244.465L242.485 346.07L240.52 353H238.165ZM255.677 345.5H257.612V353H255.677V352.115C255.097 352.845 254.282 353.21 253.232 353.21C252.232 353.21 251.372 352.83 250.652 352.07C249.942 351.3 249.587 350.36 249.587 349.25C249.587 348.14 249.942 347.205 250.652 346.445C251.372 345.675 252.232 345.29 253.232 345.29C254.282 345.29 255.097 345.655 255.677 346.385V345.5ZM252.107 350.78C252.497 351.17 252.992 351.365 253.592 351.365C254.192 351.365 254.687 351.17 255.077 350.78C255.477 350.38 255.677 349.87 255.677 349.25C255.677 348.63 255.477 348.125 255.077 347.735C254.687 347.335 254.192 347.135 253.592 347.135C252.992 347.135 252.497 347.335 252.107 347.735C251.717 348.125 251.522 348.63 251.522 349.25C251.522 349.87 251.717 350.38 252.107 350.78ZM263.656 347.36H261.961V350.48C261.961 350.74 262.026 350.93 262.156 351.05C262.286 351.17 262.476 351.24 262.726 351.26C262.976 351.27 263.286 351.265 263.656 351.245V353C262.326 353.15 261.386 353.025 260.836 352.625C260.296 352.225 260.026 351.51 260.026 350.48V347.36H258.721V345.5H260.026V343.985L261.961 343.4V345.5H263.656V347.36ZM268.356 353.21C267.226 353.21 266.281 352.83 265.521 352.07C264.771 351.31 264.396 350.37 264.396 349.25C264.396 348.13 264.771 347.19 265.521 346.43C266.281 345.67 267.226 345.29 268.356 345.29C269.086 345.29 269.751 345.465 270.351 345.815C270.951 346.165 271.406 346.635 271.716 347.225L270.051 348.2C269.901 347.89 269.671 347.645 269.361 347.465C269.061 347.285 268.721 347.195 268.341 347.195C267.761 347.195 267.281 347.39 266.901 347.78C266.521 348.16 266.331 348.65 266.331 349.25C266.331 349.84 266.521 350.33 266.901 350.72C267.281 351.1 267.761 351.29 268.341 351.29C268.731 351.29 269.076 351.205 269.376 351.035C269.686 350.855 269.916 350.61 270.066 350.3L271.746 351.26C271.416 351.85 270.951 352.325 270.351 352.685C269.751 353.035 269.086 353.21 268.356 353.21ZM276.94 345.29C277.76 345.29 278.435 345.565 278.965 346.115C279.505 346.665 279.775 347.425 279.775 348.395V353H277.84V348.635C277.84 348.135 277.705 347.755 277.435 347.495C277.165 347.225 276.805 347.09 276.355 347.09C275.855 347.09 275.455 347.245 275.155 347.555C274.855 347.865 274.705 348.33 274.705 348.95V353H272.77V342.5H274.705V346.34C275.175 345.64 275.92 345.29 276.94 345.29ZM287.862 353L284.337 342.5H286.587L289.152 350.57L291.702 342.5H293.967L290.427 353H287.862ZM295.556 344.6C295.236 344.6 294.956 344.485 294.716 344.255C294.486 344.015 294.371 343.735 294.371 343.415C294.371 343.095 294.486 342.815 294.716 342.575C294.956 342.335 295.236 342.215 295.556 342.215C295.886 342.215 296.166 342.335 296.396 342.575C296.636 342.815 296.756 343.095 296.756 343.415C296.756 343.735 296.636 344.015 296.396 344.255C296.166 344.485 295.886 344.6 295.556 344.6ZM294.596 353V345.5H296.531V353H294.596ZM303.987 342.5H305.922V353H303.987V352.115C303.417 352.845 302.607 353.21 301.557 353.21C300.547 353.21 299.682 352.83 298.962 352.07C298.252 351.3 297.897 350.36 297.897 349.25C297.897 348.14 298.252 347.205 298.962 346.445C299.682 345.675 300.547 345.29 301.557 345.29C302.607 345.29 303.417 345.655 303.987 346.385V342.5ZM300.417 350.78C300.817 351.17 301.317 351.365 301.917 351.365C302.517 351.365 303.012 351.17 303.402 350.78C303.792 350.38 303.987 349.87 303.987 349.25C303.987 348.63 303.792 348.125 303.402 347.735C303.012 347.335 302.517 347.135 301.917 347.135C301.317 347.135 300.817 347.335 300.417 347.735C300.027 348.125 299.832 348.63 299.832 349.25C299.832 349.87 300.027 350.38 300.417 350.78ZM309.327 350.045C309.587 350.985 310.292 351.455 311.442 351.455C312.182 351.455 312.742 351.205 313.122 350.705L314.682 351.605C313.942 352.675 312.852 353.21 311.412 353.21C310.172 353.21 309.177 352.835 308.427 352.085C307.677 351.335 307.302 350.39 307.302 349.25C307.302 348.12 307.672 347.18 308.412 346.43C309.152 345.67 310.102 345.29 311.262 345.29C312.362 345.29 313.267 345.67 313.977 346.43C314.697 347.19 315.057 348.13 315.057 349.25C315.057 349.5 315.032 349.765 314.982 350.045H309.327ZM309.297 348.545H313.122C313.012 348.035 312.782 347.655 312.432 347.405C312.092 347.155 311.702 347.03 311.262 347.03C310.742 347.03 310.312 347.165 309.972 347.435C309.632 347.695 309.407 348.065 309.297 348.545ZM322.739 352.07C321.969 352.83 321.029 353.21 319.919 353.21C318.809 353.21 317.869 352.83 317.099 352.07C316.339 351.3 315.959 350.36 315.959 349.25C315.959 348.14 316.339 347.205 317.099 346.445C317.869 345.675 318.809 345.29 319.919 345.29C321.029 345.29 321.969 345.675 322.739 346.445C323.509 347.205 323.894 348.14 323.894 349.25C323.894 350.36 323.509 351.3 322.739 352.07ZM318.464 350.735C318.854 351.125 319.339 351.32 319.919 351.32C320.499 351.32 320.984 351.125 321.374 350.735C321.764 350.345 321.959 349.85 321.959 349.25C321.959 348.65 321.764 348.155 321.374 347.765C320.984 347.375 320.499 347.18 319.919 347.18C319.339 347.18 318.854 347.375 318.464 347.765C318.084 348.155 317.894 348.65 317.894 349.25C317.894 349.85 318.084 350.345 318.464 350.735Z" fill="#AAAAAA"/>
<path d="M27.58 242C28.8733 242 29.9467 242.433 30.8 243.3C31.6667 244.153 32.1 245.22 32.1 246.5C32.1 247.767 31.6667 248.833 30.8 249.7C29.9467 250.567 28.8733 251 27.58 251H24.36V256H22.5V242H27.58ZM27.58 249.26C28.3533 249.26 28.9933 249 29.5 248.48C30.0067 247.947 30.26 247.287 30.26 246.5C30.26 245.7 30.0067 245.04 29.5 244.52C28.9933 244 28.3533 243.74 27.58 243.74H24.36V249.26H27.58ZM35.642 247.68C36.2154 246.44 37.2554 245.82 38.762 245.82V247.64C37.9087 247.6 37.1754 247.827 36.562 248.32C35.9487 248.813 35.642 249.607 35.642 250.7V256H33.902V246H35.642V247.68ZM48.3577 254.74C47.331 255.753 46.0843 256.26 44.6177 256.26C43.151 256.26 41.9043 255.753 40.8777 254.74C39.8643 253.727 39.3577 252.48 39.3577 251C39.3577 249.52 39.8643 248.273 40.8777 247.26C41.9043 246.247 43.151 245.74 44.6177 245.74C46.0843 245.74 47.331 246.247 48.3577 247.26C49.3843 248.273 49.8977 249.52 49.8977 251C49.8977 252.48 49.3843 253.727 48.3577 254.74ZM44.6177 254.56C45.6177 254.56 46.4577 254.22 47.1377 253.54C47.8177 252.86 48.1577 252.013 48.1577 251C48.1577 249.987 47.8177 249.14 47.1377 248.46C46.4577 247.78 45.6177 247.44 44.6177 247.44C43.631 247.44 42.7977 247.78 42.1177 248.46C41.4377 249.14 41.0977 249.987 41.0977 251C41.0977 252.013 41.4377 252.86 42.1177 253.54C42.7977 254.22 43.631 254.56 44.6177 254.56ZM58.5583 246H60.4383L56.4383 256H54.3983L50.3983 246H52.2783L55.4183 254.14L58.5583 246ZM62.7898 244.18C62.4565 244.18 62.1765 244.067 61.9498 243.84C61.7232 243.613 61.6098 243.34 61.6098 243.02C61.6098 242.7 61.7232 242.427 61.9498 242.2C62.1765 241.96 62.4565 241.84 62.7898 241.84C63.1098 241.84 63.3832 241.96 63.6098 242.2C63.8365 242.427 63.9498 242.7 63.9498 243.02C63.9498 243.34 63.8365 243.613 63.6098 243.84C63.3832 244.067 63.1098 244.18 62.7898 244.18ZM61.9098 256V246H63.6498V256H61.9098ZM74.5844 242H76.3244V256H74.5844V254.28C73.7177 255.6 72.4577 256.26 70.8044 256.26C69.4044 256.26 68.211 255.753 67.2244 254.74C66.2377 253.713 65.7444 252.467 65.7444 251C65.7444 249.533 66.2377 248.293 67.2244 247.28C68.211 246.253 69.4044 245.74 70.8044 245.74C72.4577 245.74 73.7177 246.4 74.5844 247.72V242ZM71.0244 254.58C72.0377 254.58 72.8844 254.24 73.5644 253.56C74.2444 252.867 74.5844 252.013 74.5844 251C74.5844 249.987 74.2444 249.14 73.5644 248.46C72.8844 247.767 72.0377 247.42 71.0244 247.42C70.0244 247.42 69.1844 247.767 68.5044 248.46C67.8244 249.14 67.4844 249.987 67.4844 251C67.4844 252.013 67.8244 252.867 68.5044 253.56C69.1844 254.24 70.0244 254.58 71.0244 254.58ZM80.1806 251.8C80.354 252.693 80.7606 253.387 81.4006 253.88C82.054 254.373 82.854 254.62 83.8006 254.62C85.1206 254.62 86.0806 254.133 86.6806 253.16L88.1606 254C87.1873 255.507 85.7206 256.26 83.7606 256.26C82.174 256.26 80.8806 255.767 79.8806 254.78C78.894 253.78 78.4006 252.52 78.4006 251C78.4006 249.493 78.8873 248.24 79.8606 247.24C80.834 246.24 82.094 245.74 83.6406 245.74C85.1073 245.74 86.3006 246.26 87.2206 247.3C88.154 248.327 88.6206 249.567 88.6206 251.02C88.6206 251.273 88.6006 251.533 88.5606 251.8H80.1806ZM83.6406 247.38C82.7073 247.38 81.934 247.647 81.3206 248.18C80.7073 248.7 80.3273 249.4 80.1806 250.28H86.8606C86.714 249.333 86.3406 248.613 85.7406 248.12C85.1406 247.627 84.4406 247.38 83.6406 247.38ZM103.901 246H105.641V256H103.901V254.28C103.034 255.6 101.774 256.26 100.121 256.26C98.7208 256.26 97.5274 255.753 96.5408 254.74C95.5541 253.713 95.0608 252.467 95.0608 251C95.0608 249.533 95.5541 248.293 96.5408 247.28C97.5274 246.253 98.7208 245.74 100.121 245.74C101.774 245.74 103.034 246.4 103.901 247.72V246ZM100.341 254.58C101.354 254.58 102.201 254.24 102.881 253.56C103.561 252.867 103.901 252.013 103.901 251C103.901 249.987 103.561 249.14 102.881 248.46C102.201 247.767 101.354 247.42 100.341 247.42C99.3408 247.42 98.5008 247.767 97.8208 248.46C97.1408 249.14 96.8008 249.987 96.8008 251C96.8008 252.013 97.1408 252.867 97.8208 253.56C98.5008 254.24 99.3408 254.58 100.341 254.58ZM108.277 256V241.4H110.017V256H108.277ZM112.672 256V241.4H114.412V256H112.672ZM130.526 256H128.366L123.806 251.26V256H122.066V242H123.806V250.42L128.126 246H130.366L125.586 250.84L130.526 256ZM133.024 244.18C132.691 244.18 132.411 244.067 132.184 243.84C131.958 243.613 131.844 243.34 131.844 243.02C131.844 242.7 131.958 242.427 132.184 242.2C132.411 241.96 132.691 241.84 133.024 241.84C133.344 241.84 133.618 241.96 133.844 242.2C134.071 242.427 134.184 242.7 134.184 243.02C134.184 243.34 134.071 243.613 133.844 243.84C133.618 244.067 133.344 244.18 133.024 244.18ZM132.144 256V246H133.884V256H132.144ZM141.519 245.74C142.692 245.74 143.632 246.113 144.339 246.86C145.045 247.593 145.399 248.593 145.399 249.86V256H143.659V249.96C143.659 249.147 143.439 248.52 142.999 248.08C142.559 247.627 141.952 247.4 141.179 247.4C140.312 247.4 139.612 247.673 139.079 248.22C138.545 248.753 138.279 249.58 138.279 250.7V256H136.539V246H138.279V247.44C138.985 246.307 140.065 245.74 141.519 245.74ZM156.108 242H157.848V256H156.108V254.28C155.241 255.6 153.981 256.26 152.328 256.26C150.928 256.26 149.734 255.753 148.748 254.74C147.761 253.713 147.268 252.467 147.268 251C147.268 249.533 147.761 248.293 148.748 247.28C149.734 246.253 150.928 245.74 152.328 245.74C153.981 245.74 155.241 246.4 156.108 247.72V242ZM152.548 254.58C153.561 254.58 154.408 254.24 155.088 253.56C155.768 252.867 156.108 252.013 156.108 251C156.108 249.987 155.768 249.14 155.088 248.46C154.408 247.767 153.561 247.42 152.548 247.42C151.548 247.42 150.708 247.767 150.028 248.46C149.348 249.14 149.008 249.987 149.008 251C149.008 252.013 149.348 252.867 150.028 253.56C150.708 254.24 151.548 254.58 152.548 254.58ZM173.924 254.74C172.897 255.753 171.651 256.26 170.184 256.26C168.717 256.26 167.471 255.753 166.444 254.74C165.431 253.727 164.924 252.48 164.924 251C164.924 249.52 165.431 248.273 166.444 247.26C167.471 246.247 168.717 245.74 170.184 245.74C171.651 245.74 172.897 246.247 173.924 247.26C174.951 248.273 175.464 249.52 175.464 251C175.464 252.48 174.951 253.727 173.924 254.74ZM170.184 254.56C171.184 254.56 172.024 254.22 172.704 253.54C173.384 252.86 173.724 252.013 173.724 251C173.724 249.987 173.384 249.14 172.704 248.46C172.024 247.78 171.184 247.44 170.184 247.44C169.197 247.44 168.364 247.78 167.684 248.46C167.004 249.14 166.664 249.987 166.664 251C166.664 252.013 167.004 252.86 167.684 253.54C168.364 254.22 169.197 254.56 170.184 254.56ZM182.284 243.42C180.524 243.273 179.644 244.033 179.644 245.7V246H182.284V247.68H179.644V256H177.904V247.68H176.304V246H177.904V245.7C177.904 244.353 178.278 243.333 179.024 242.64C179.784 241.947 180.871 241.647 182.284 241.74V243.42ZM190.109 248.7C190.109 249.087 190.302 249.4 190.689 249.64C191.076 249.867 191.542 250.053 192.089 250.2C192.636 250.333 193.182 250.493 193.729 250.68C194.276 250.853 194.742 251.16 195.129 251.6C195.516 252.027 195.709 252.58 195.709 253.26C195.709 254.167 195.356 254.893 194.649 255.44C193.956 255.987 193.062 256.26 191.969 256.26C190.996 256.26 190.162 256.047 189.469 255.62C188.776 255.193 188.282 254.627 187.989 253.92L189.489 253.06C189.649 253.54 189.949 253.92 190.389 254.2C190.829 254.48 191.356 254.62 191.969 254.62C192.542 254.62 193.016 254.513 193.389 254.3C193.762 254.073 193.949 253.727 193.949 253.26C193.949 252.873 193.756 252.567 193.369 252.34C192.982 252.1 192.516 251.913 191.969 251.78C191.422 251.633 190.876 251.467 190.329 251.28C189.782 251.093 189.316 250.787 188.929 250.36C188.542 249.933 188.349 249.387 188.349 248.72C188.349 247.853 188.682 247.14 189.349 246.58C190.029 246.02 190.876 245.74 191.889 245.74C192.702 245.74 193.422 245.927 194.049 246.3C194.689 246.66 195.169 247.167 195.489 247.82L194.029 248.64C193.669 247.787 192.956 247.36 191.889 247.36C191.396 247.36 190.976 247.48 190.629 247.72C190.282 247.947 190.109 248.273 190.109 248.7ZM198.716 251.8C198.889 252.693 199.296 253.387 199.936 253.88C200.589 254.373 201.389 254.62 202.336 254.62C203.656 254.62 204.616 254.133 205.216 253.16L206.696 254C205.722 255.507 204.256 256.26 202.296 256.26C200.709 256.26 199.416 255.767 198.416 254.78C197.429 253.78 196.936 252.52 196.936 251C196.936 249.493 197.422 248.24 198.396 247.24C199.369 246.24 200.629 245.74 202.176 245.74C203.642 245.74 204.836 246.26 205.756 247.3C206.689 248.327 207.156 249.567 207.156 251.02C207.156 251.273 207.136 251.533 207.096 251.8H198.716ZM202.176 247.38C201.242 247.38 200.469 247.647 199.856 248.18C199.242 248.7 198.862 249.4 198.716 250.28H205.396C205.249 249.333 204.876 248.613 204.276 248.12C203.676 247.627 202.976 247.38 202.176 247.38ZM217.576 254.74C216.55 255.753 215.303 256.26 213.836 256.26C212.37 256.26 211.123 255.753 210.096 254.74C209.083 253.727 208.576 252.48 208.576 251C208.576 249.52 209.083 248.273 210.096 247.26C211.123 246.247 212.37 245.74 213.836 245.74C215.303 245.74 216.55 246.247 217.576 247.26C218.603 248.273 219.116 249.52 219.116 251C219.116 252.48 218.603 253.727 217.576 254.74ZM213.836 254.56C214.836 254.56 215.676 254.22 216.356 253.54C217.036 252.86 217.376 252.013 217.376 251C217.376 249.987 217.036 249.14 216.356 248.46C215.676 247.78 214.836 247.44 213.836 247.44C212.85 247.44 212.016 247.78 211.336 248.46C210.656 249.14 210.316 249.987 210.316 251C210.316 252.013 210.656 252.86 211.336 253.54C212.016 254.22 212.85 254.56 213.836 254.56ZM227.668 248.7C227.668 249.087 227.861 249.4 228.248 249.64C228.634 249.867 229.101 250.053 229.648 250.2C230.194 250.333 230.741 250.493 231.288 250.68C231.834 250.853 232.301 251.16 232.688 251.6C233.074 252.027 233.268 252.58 233.268 253.26C233.268 254.167 232.914 254.893 232.208 255.44C231.514 255.987 230.621 256.26 229.528 256.26C228.554 256.26 227.721 256.047 227.028 255.62C226.334 255.193 225.841 254.627 225.548 253.92L227.048 253.06C227.208 253.54 227.508 253.92 227.948 254.2C228.388 254.48 228.914 254.62 229.528 254.62C230.101 254.62 230.574 254.513 230.948 254.3C231.321 254.073 231.508 253.727 231.508 253.26C231.508 252.873 231.314 252.567 230.928 252.34C230.541 252.1 230.074 251.913 229.528 251.78C228.981 251.633 228.434 251.467 227.888 251.28C227.341 251.093 226.874 250.787 226.488 250.36C226.101 249.933 225.908 249.387 225.908 248.72C225.908 247.853 226.241 247.14 226.908 246.58C227.588 246.02 228.434 245.74 229.448 245.74C230.261 245.74 230.981 245.927 231.608 246.3C232.248 246.66 232.728 247.167 233.048 247.82L231.588 248.64C231.228 247.787 230.514 247.36 229.448 247.36C228.954 247.36 228.534 247.48 228.188 247.72C227.841 247.947 227.668 248.273 227.668 248.7ZM236.274 251.8C236.448 252.693 236.854 253.387 237.494 253.88C238.148 254.373 238.948 254.62 239.894 254.62C241.214 254.62 242.174 254.133 242.774 253.16L244.254 254C243.281 255.507 241.814 256.26 239.854 256.26C238.268 256.26 236.974 255.767 235.974 254.78C234.988 253.78 234.494 252.52 234.494 251C234.494 249.493 234.981 248.24 235.954 247.24C236.928 246.24 238.188 245.74 239.734 245.74C241.201 245.74 242.394 246.26 243.314 247.3C244.248 248.327 244.714 249.567 244.714 251.02C244.714 251.273 244.694 251.533 244.654 251.8H236.274ZM239.734 247.38C238.801 247.38 238.028 247.647 237.414 248.18C236.801 248.7 236.421 249.4 236.274 250.28H242.954C242.808 249.333 242.434 248.613 241.834 248.12C241.234 247.627 240.534 247.38 239.734 247.38ZM248.455 247.68C249.028 246.44 250.068 245.82 251.575 245.82V247.64C250.721 247.6 249.988 247.827 249.375 248.32C248.761 248.813 248.455 249.607 248.455 250.7V256H246.715V246H248.455V247.68ZM260.277 246H262.157L258.157 256H256.117L252.117 246H253.997L257.137 254.14L260.277 246ZM264.509 244.18C264.175 244.18 263.895 244.067 263.669 243.84C263.442 243.613 263.329 243.34 263.329 243.02C263.329 242.7 263.442 242.427 263.669 242.2C263.895 241.96 264.175 241.84 264.509 241.84C264.829 241.84 265.102 241.96 265.329 242.2C265.555 242.427 265.669 242.7 265.669 243.02C265.669 243.34 265.555 243.613 265.329 243.84C265.102 244.067 264.829 244.18 264.509 244.18ZM263.629 256V246H265.369V256H263.629ZM272.723 256.26C271.216 256.26 269.963 255.76 268.963 254.76C267.963 253.747 267.463 252.493 267.463 251C267.463 249.507 267.963 248.26 268.963 247.26C269.963 246.247 271.216 245.74 272.723 245.74C273.71 245.74 274.596 245.98 275.383 246.46C276.17 246.927 276.756 247.56 277.143 248.36L275.683 249.2C275.43 248.667 275.036 248.24 274.503 247.92C273.983 247.6 273.39 247.44 272.723 247.44C271.723 247.44 270.883 247.78 270.203 248.46C269.536 249.14 269.203 249.987 269.203 251C269.203 252 269.536 252.84 270.203 253.52C270.883 254.2 271.723 254.54 272.723 254.54C273.39 254.54 273.99 254.387 274.523 254.08C275.056 253.76 275.463 253.333 275.743 252.8L277.223 253.66C276.796 254.447 276.183 255.08 275.383 255.56C274.583 256.027 273.696 256.26 272.723 256.26ZM280.024 251.8C280.198 252.693 280.604 253.387 281.244 253.88C281.898 254.373 282.698 254.62 283.644 254.62C284.964 254.62 285.924 254.133 286.524 253.16L288.004 254C287.031 255.507 285.564 256.26 283.604 256.26C282.018 256.26 280.724 255.767 279.724 254.78C278.738 253.78 278.244 252.52 278.244 251C278.244 249.493 278.731 248.24 279.704 247.24C280.678 246.24 281.938 245.74 283.484 245.74C284.951 245.74 286.144 246.26 287.064 247.3C287.998 248.327 288.464 249.567 288.464 251.02C288.464 251.273 288.444 251.533 288.404 251.8H280.024ZM283.484 247.38C282.551 247.38 281.778 247.647 281.164 248.18C280.551 248.7 280.171 249.4 280.024 250.28H286.704C286.558 249.333 286.184 248.613 285.584 248.12C284.984 247.627 284.284 247.38 283.484 247.38ZM291.574 248.7C291.574 249.087 291.767 249.4 292.154 249.64C292.541 249.867 293.007 250.053 293.554 250.2C294.101 250.333 294.647 250.493 295.194 250.68C295.741 250.853 296.207 251.16 296.594 251.6C296.981 252.027 297.174 252.58 297.174 253.26C297.174 254.167 296.821 254.893 296.114 255.44C295.421 255.987 294.527 256.26 293.434 256.26C292.461 256.26 291.627 256.047 290.934 255.62C290.241 255.193 289.747 254.627 289.454 253.92L290.954 253.06C291.114 253.54 291.414 253.92 291.854 254.2C292.294 254.48 292.821 254.62 293.434 254.62C294.007 254.62 294.481 254.513 294.854 254.3C295.227 254.073 295.414 253.727 295.414 253.26C295.414 252.873 295.221 252.567 294.834 252.34C294.447 252.1 293.981 251.913 293.434 251.78C292.887 251.633 292.341 251.467 291.794 251.28C291.247 251.093 290.781 250.787 290.394 250.36C290.007 249.933 289.814 249.387 289.814 248.72C289.814 247.853 290.147 247.14 290.814 246.58C291.494 246.02 292.341 245.74 293.354 245.74C294.167 245.74 294.887 245.927 295.514 246.3C296.154 246.66 296.634 247.167 296.954 247.82L295.494 248.64C295.134 247.787 294.421 247.36 293.354 247.36C292.861 247.36 292.441 247.48 292.094 247.72C291.747 247.947 291.574 248.273 291.574 248.7ZM312.514 246H314.254V256H312.514V254.28C311.647 255.6 310.387 256.26 308.734 256.26C307.334 256.26 306.141 255.753 305.154 254.74C304.167 253.713 303.674 252.467 303.674 251C303.674 249.533 304.167 248.293 305.154 247.28C306.141 246.253 307.334 245.74 308.734 245.74C310.387 245.74 311.647 246.4 312.514 247.72V246ZM308.954 254.58C309.967 254.58 310.814 254.24 311.494 253.56C312.174 252.867 312.514 252.013 312.514 251C312.514 249.987 312.174 249.14 311.494 248.46C310.814 247.767 309.967 247.42 308.954 247.42C307.954 247.42 307.114 247.767 306.434 248.46C305.754 249.14 305.414 249.987 305.414 251C305.414 252.013 305.754 252.867 306.434 253.56C307.114 254.24 307.954 254.58 308.954 254.58ZM321.87 245.74C323.044 245.74 323.984 246.113 324.69 246.86C325.397 247.593 325.75 248.593 325.75 249.86V256H324.01V249.96C324.01 249.147 323.79 248.52 323.35 248.08C322.91 247.627 322.304 247.4 321.53 247.4C320.664 247.4 319.964 247.673 319.43 248.22C318.897 248.753 318.63 249.58 318.63 250.7V256H316.89V246H318.63V247.44C319.337 246.307 320.417 245.74 321.87 245.74ZM336.459 242H338.199V256H336.459V254.28C335.593 255.6 334.333 256.26 332.679 256.26C331.279 256.26 330.086 255.753 329.099 254.74C328.113 253.713 327.619 252.467 327.619 251C327.619 249.533 328.113 248.293 329.099 247.28C330.086 246.253 331.279 245.74 332.679 245.74C334.333 245.74 335.593 246.4 336.459 247.72V242ZM332.899 254.58C333.913 254.58 334.759 254.24 335.439 253.56C336.119 252.867 336.459 252.013 336.459 251C336.459 249.987 336.119 249.14 335.439 248.46C334.759 247.767 333.913 247.42 332.899 247.42C331.899 247.42 331.059 247.767 330.379 248.46C329.699 249.14 329.359 249.987 329.359 251C329.359 252.013 329.699 252.867 330.379 253.56C331.059 254.24 331.899 254.58 332.899 254.58ZM350.816 245.74C351.989 245.74 352.929 246.113 353.636 246.86C354.342 247.593 354.696 248.593 354.696 249.86V256H352.956V249.96C352.956 249.147 352.736 248.52 352.296 248.08C351.856 247.627 351.249 247.4 350.476 247.4C349.609 247.4 348.909 247.673 348.376 248.22C347.842 248.753 347.576 249.58 347.576 250.7V256H345.836V242H347.576V247.44C348.282 246.307 349.362 245.74 350.816 245.74ZM358.345 251.8C358.518 252.693 358.925 253.387 359.565 253.88C360.218 254.373 361.018 254.62 361.965 254.62C363.285 254.62 364.245 254.133 364.845 253.16L366.325 254C365.351 255.507 363.885 256.26 361.925 256.26C360.338 256.26 359.045 255.767 358.045 254.78C357.058 253.78 356.565 252.52 356.565 251C356.565 249.493 357.051 248.24 358.025 247.24C358.998 246.24 360.258 245.74 361.805 245.74C363.271 245.74 364.465 246.26 365.385 247.3C366.318 248.327 366.785 249.567 366.785 251.02C366.785 251.273 366.765 251.533 366.725 251.8H358.345ZM361.805 247.38C360.871 247.38 360.098 247.647 359.485 248.18C358.871 248.7 358.491 249.4 358.345 250.28H365.025C364.878 249.333 364.505 248.613 363.905 248.12C363.305 247.627 362.605 247.38 361.805 247.38ZM368.785 256V241.4H370.525V256H368.785ZM378.699 245.74C380.099 245.74 381.293 246.253 382.279 247.28C383.266 248.293 383.759 249.533 383.759 251C383.759 252.467 383.266 253.713 382.279 254.74C381.293 255.753 380.099 256.26 378.699 256.26C377.046 256.26 375.786 255.6 374.919 254.28V260H373.179V246H374.919V247.72C375.786 246.4 377.046 245.74 378.699 245.74ZM378.479 254.58C379.479 254.58 380.319 254.24 380.999 253.56C381.679 252.867 382.019 252.013 382.019 251C382.019 249.987 381.679 249.14 380.999 248.46C380.319 247.767 379.479 247.42 378.479 247.42C377.466 247.42 376.619 247.767 375.939 248.46C375.259 249.14 374.919 249.987 374.919 251C374.919 252.013 375.259 252.867 375.939 253.56C376.619 254.24 377.466 254.58 378.479 254.58ZM396.276 247.68H393.616V253.1C393.616 253.593 393.709 253.947 393.896 254.16C394.096 254.36 394.396 254.467 394.796 254.48C395.196 254.48 395.689 254.467 396.276 254.44V256C394.756 256.2 393.642 256.08 392.936 255.64C392.229 255.187 391.876 254.34 391.876 253.1V247.68H389.896V246H391.876V243.72L393.616 243.2V246H396.276V247.68ZM406.268 254.74C405.241 255.753 403.994 256.26 402.528 256.26C401.061 256.26 399.814 255.753 398.788 254.74C397.774 253.727 397.268 252.48 397.268 251C397.268 249.52 397.774 248.273 398.788 247.26C399.814 246.247 401.061 245.74 402.528 245.74C403.994 245.74 405.241 246.247 406.268 247.26C407.294 248.273 407.808 249.52 407.808 251C407.808 252.48 407.294 253.727 406.268 254.74ZM402.528 254.56C403.528 254.56 404.368 254.22 405.048 253.54C405.728 252.86 406.068 252.013 406.068 251C406.068 249.987 405.728 249.14 405.048 248.46C404.368 247.78 403.528 247.44 402.528 247.44C401.541 247.44 400.708 247.78 400.028 248.46C399.348 249.14 399.008 249.987 399.008 251C399.008 252.013 399.348 252.86 400.028 253.54C400.708 254.22 401.541 254.56 402.528 254.56ZM415.739 244.18C415.406 244.18 415.126 244.067 414.899 243.84C414.672 243.613 414.559 243.34 414.559 243.02C414.559 242.7 414.672 242.427 414.899 242.2C415.126 241.96 415.406 241.84 415.739 241.84C416.059 241.84 416.332 241.96 416.559 242.2C416.786 242.427 416.899 242.7 416.899 243.02C416.899 243.34 416.786 243.613 416.559 243.84C416.332 244.067 416.059 244.18 415.739 244.18ZM414.859 256V246H416.599V256H414.859ZM430.054 245.74C431.174 245.74 432.08 246.107 432.774 246.84C433.467 247.56 433.814 248.54 433.814 249.78V256H432.074V249.84C432.074 249.067 431.874 248.467 431.474 248.04C431.074 247.613 430.54 247.4 429.874 247.4C429.127 247.4 428.527 247.653 428.074 248.16C427.634 248.653 427.414 249.413 427.414 250.44V256H425.674V249.84C425.674 249.067 425.48 248.467 425.094 248.04C424.72 247.613 424.207 247.4 423.554 247.4C422.82 247.4 422.207 247.653 421.714 248.16C421.234 248.667 420.994 249.427 420.994 250.44V256H419.254V246H420.994V247.34C421.674 246.273 422.667 245.74 423.974 245.74C425.32 245.74 426.3 246.307 426.914 247.44C427.607 246.307 428.654 245.74 430.054 245.74ZM441.746 245.74C443.146 245.74 444.34 246.253 445.326 247.28C446.313 248.293 446.806 249.533 446.806 251C446.806 252.467 446.313 253.713 445.326 254.74C444.34 255.753 443.146 256.26 441.746 256.26C440.093 256.26 438.833 255.6 437.966 254.28V260H436.226V246H437.966V247.72C438.833 246.4 440.093 245.74 441.746 245.74ZM441.526 254.58C442.526 254.58 443.366 254.24 444.046 253.56C444.726 252.867 445.066 252.013 445.066 251C445.066 249.987 444.726 249.14 444.046 248.46C443.366 247.767 442.526 247.42 441.526 247.42C440.513 247.42 439.666 247.767 438.986 248.46C438.306 249.14 437.966 249.987 437.966 251C437.966 252.013 438.306 252.867 438.986 253.56C439.666 254.24 440.513 254.58 441.526 254.58ZM450.623 247.68C451.196 246.44 452.236 245.82 453.743 245.82V247.64C452.889 247.6 452.156 247.827 451.543 248.32C450.929 248.813 450.623 249.607 450.623 250.7V256H448.882V246H450.623V247.68ZM463.338 254.74C462.311 255.753 461.065 256.26 459.598 256.26C458.131 256.26 456.885 255.753 455.858 254.74C454.845 253.727 454.338 252.48 454.338 251C454.338 249.52 454.845 248.273 455.858 247.26C456.885 246.247 458.131 245.74 459.598 245.74C461.065 245.74 462.311 246.247 463.338 247.26C464.365 248.273 464.878 249.52 464.878 251C464.878 252.48 464.365 253.727 463.338 254.74ZM459.598 254.56C460.598 254.56 461.438 254.22 462.118 253.54C462.798 252.86 463.138 252.013 463.138 251C463.138 249.987 462.798 249.14 462.118 248.46C461.438 247.78 460.598 247.44 459.598 247.44C458.611 247.44 457.778 247.78 457.098 248.46C456.418 249.14 456.078 249.987 456.078 251C456.078 252.013 456.418 252.86 457.098 253.54C457.778 254.22 458.611 254.56 459.598 254.56ZM473.539 246H475.419L471.419 256H469.379L465.379 246H467.259L470.399 254.14L473.539 246ZM477.72 251.8C477.893 252.693 478.3 253.387 478.94 253.88C479.593 254.373 480.393 254.62 481.34 254.62C482.66 254.62 483.62 254.133 484.22 253.16L485.7 254C484.726 255.507 483.26 256.26 481.3 256.26C479.713 256.26 478.42 255.767 477.42 254.78C476.433 253.78 475.94 252.52 475.94 251C475.94 249.493 476.426 248.24 477.4 247.24C478.373 246.24 479.633 245.74 481.18 245.74C482.646 245.74 483.84 246.26 484.76 247.3C485.693 248.327 486.16 249.567 486.16 251.02C486.16 251.273 486.14 251.533 486.1 251.8H477.72ZM481.18 247.38C480.246 247.38 479.473 247.647 478.86 248.18C478.246 248.7 477.866 249.4 477.72 250.28H484.4C484.253 249.333 483.88 248.613 483.28 248.12C482.68 247.627 481.98 247.38 481.18 247.38ZM23.82 272.7C23.82 273.087 24.0133 273.4 24.4 273.64C24.7867 273.867 25.2533 274.053 25.8 274.2C26.3467 274.333 26.8933 274.493 27.44 274.68C27.9867 274.853 28.4533 275.16 28.84 275.6C29.2267 276.027 29.42 276.58 29.42 277.26C29.42 278.167 29.0667 278.893 28.36 279.44C27.6667 279.987 26.7733 280.26 25.68 280.26C24.7067 280.26 23.8733 280.047 23.18 279.62C22.4867 279.193 21.9933 278.627 21.7 277.92L23.2 277.06C23.36 277.54 23.66 277.92 24.1 278.2C24.54 278.48 25.0667 278.62 25.68 278.62C26.2533 278.62 26.7267 278.513 27.1 278.3C27.4733 278.073 27.66 277.727 27.66 277.26C27.66 276.873 27.4667 276.567 27.08 276.34C26.6933 276.1 26.2267 275.913 25.68 275.78C25.1333 275.633 24.5867 275.467 24.04 275.28C23.4933 275.093 23.0267 274.787 22.64 274.36C22.2533 273.933 22.06 273.387 22.06 272.72C22.06 271.853 22.3933 271.14 23.06 270.58C23.74 270.02 24.5867 269.74 25.6 269.74C26.4133 269.74 27.1333 269.927 27.76 270.3C28.4 270.66 28.88 271.167 29.2 271.82L27.74 272.64C27.38 271.787 26.6667 271.36 25.6 271.36C25.1067 271.36 24.6867 271.48 24.34 271.72C23.9933 271.947 23.82 272.273 23.82 272.7ZM32.4267 275.8C32.6001 276.693 33.0067 277.387 33.6467 277.88C34.3001 278.373 35.1001 278.62 36.0467 278.62C37.3667 278.62 38.3267 278.133 38.9267 277.16L40.4067 278C39.4334 279.507 37.9667 280.26 36.0067 280.26C34.4201 280.26 33.1267 279.767 32.1267 278.78C31.1401 277.78 30.6467 276.52 30.6467 275C30.6467 273.493 31.1334 272.24 32.1067 271.24C33.0801 270.24 34.3401 269.74 35.8867 269.74C37.3534 269.74 38.5467 270.26 39.4667 271.3C40.4001 272.327 40.8667 273.567 40.8667 275.02C40.8667 275.273 40.8467 275.533 40.8067 275.8H32.4267ZM35.8867 271.38C34.9534 271.38 34.1801 271.647 33.5667 272.18C32.9534 272.7 32.5734 273.4 32.4267 274.28H39.1067C38.9601 273.333 38.5867 272.613 37.9867 272.12C37.3867 271.627 36.6867 271.38 35.8867 271.38ZM51.2873 278.74C50.2607 279.753 49.014 280.26 47.5473 280.26C46.0807 280.26 44.834 279.753 43.8073 278.74C42.794 277.727 42.2873 276.48 42.2873 275C42.2873 273.52 42.794 272.273 43.8073 271.26C44.834 270.247 46.0807 269.74 47.5473 269.74C49.014 269.74 50.2607 270.247 51.2873 271.26C52.314 272.273 52.8273 273.52 52.8273 275C52.8273 276.48 52.314 277.727 51.2873 278.74ZM47.5473 278.56C48.5473 278.56 49.3873 278.22 50.0673 277.54C50.7473 276.86 51.0873 276.013 51.0873 275C51.0873 273.987 50.7473 273.14 50.0673 272.46C49.3873 271.78 48.5473 271.44 47.5473 271.44C46.5607 271.44 45.7273 271.78 45.0473 272.46C44.3673 273.14 44.0273 273.987 44.0273 275C44.0273 276.013 44.3673 276.86 45.0473 277.54C45.7273 278.22 46.5607 278.56 47.5473 278.56ZM61.6186 271.68C62.1919 270.44 63.2319 269.82 64.7386 269.82V271.64C63.8853 271.6 63.1519 271.827 62.5386 272.32C61.9253 272.813 61.6186 273.607 61.6186 274.7V280H59.8786V270H61.6186V271.68ZM74.1742 270H75.9142V280H74.1742V278.28C73.3076 279.6 72.0476 280.26 70.3942 280.26C68.9942 280.26 67.8009 279.753 66.8142 278.74C65.8276 277.713 65.3342 276.467 65.3342 275C65.3342 273.533 65.8276 272.293 66.8142 271.28C67.8009 270.253 68.9942 269.74 70.3942 269.74C72.0476 269.74 73.3076 270.4 74.1742 271.72V270ZM70.6142 278.58C71.6276 278.58 72.4742 278.24 73.1542 277.56C73.8342 276.867 74.1742 276.013 74.1742 275C74.1742 273.987 73.8342 273.14 73.1542 272.46C72.4742 271.767 71.6276 271.42 70.6142 271.42C69.6142 271.42 68.7742 271.767 68.0942 272.46C67.4142 273.14 67.0742 273.987 67.0742 275C67.0742 276.013 67.4142 276.867 68.0942 277.56C68.7742 278.24 69.6142 278.58 70.6142 278.58ZM83.5305 269.74C84.7038 269.74 85.6438 270.113 86.3505 270.86C87.0571 271.593 87.4105 272.593 87.4105 273.86V280H85.6705V273.96C85.6705 273.147 85.4505 272.52 85.0105 272.08C84.5705 271.627 83.9638 271.4 83.1905 271.4C82.3238 271.4 81.6238 271.673 81.0905 272.22C80.5571 272.753 80.2905 273.58 80.2905 274.7V280H78.5505V270H80.2905V271.44C80.9971 270.307 82.0771 269.74 83.5305 269.74ZM98.2995 280H96.1395L91.5795 275.26V280H89.8395V266H91.5795V274.42L95.8995 270H98.1395L93.3595 274.84L98.2995 280ZM100.798 268.18C100.464 268.18 100.184 268.067 99.9577 267.84C99.731 267.613 99.6177 267.34 99.6177 267.02C99.6177 266.7 99.731 266.427 99.9577 266.2C100.184 265.96 100.464 265.84 100.798 265.84C101.118 265.84 101.391 265.96 101.618 266.2C101.844 266.427 101.958 266.7 101.958 267.02C101.958 267.34 101.844 267.613 101.618 267.84C101.391 268.067 101.118 268.18 100.798 268.18ZM99.9177 280V270H101.658V280H99.9177ZM109.292 269.74C110.466 269.74 111.406 270.113 112.112 270.86C112.819 271.593 113.172 272.593 113.172 273.86V280H111.432V273.96C111.432 273.147 111.212 272.52 110.772 272.08C110.332 271.627 109.726 271.4 108.952 271.4C108.086 271.4 107.386 271.673 106.852 272.22C106.319 272.753 106.052 273.58 106.052 274.7V280H104.312V270H106.052V271.44C106.759 270.307 107.839 269.74 109.292 269.74ZM123.901 270H125.621V279.58C125.621 281.06 125.121 282.207 124.121 283.02C123.121 283.847 121.921 284.26 120.521 284.26C119.401 284.26 118.435 284.047 117.621 283.62C116.808 283.207 116.195 282.607 115.781 281.82L117.301 280.96C117.848 282.08 118.935 282.64 120.561 282.64C121.601 282.64 122.415 282.367 123.001 281.82C123.601 281.273 123.901 280.527 123.901 279.58V278.16C123.021 279.493 121.768 280.16 120.141 280.16C118.715 280.16 117.508 279.653 116.521 278.64C115.535 277.627 115.041 276.393 115.041 274.94C115.041 273.487 115.535 272.26 116.521 271.26C117.508 270.247 118.715 269.74 120.141 269.74C121.781 269.74 123.035 270.4 123.901 271.72V270ZM117.801 277.48C118.481 278.16 119.328 278.5 120.341 278.5C121.355 278.5 122.201 278.16 122.881 277.48C123.561 276.8 123.901 275.953 123.901 274.94C123.901 273.94 123.561 273.1 122.881 272.42C122.201 271.74 121.355 271.4 120.341 271.4C119.328 271.4 118.481 271.74 117.801 272.42C117.121 273.1 116.781 273.94 116.781 274.94C116.781 275.953 117.121 276.8 117.801 277.48ZM129.358 280.22C128.998 280.22 128.691 280.093 128.438 279.84C128.184 279.587 128.058 279.28 128.058 278.92C128.058 278.56 128.184 278.253 128.438 278C128.691 277.747 128.998 277.62 129.358 277.62C129.731 277.62 130.038 277.747 130.278 278C130.531 278.253 130.658 278.56 130.658 278.92C130.658 279.28 130.531 279.587 130.278 279.84C130.038 280.093 129.731 280.22 129.358 280.22ZM151.801 273.06V273.9C151.801 275.727 151.174 277.247 149.921 278.46C148.667 279.66 147.007 280.26 144.941 280.26C142.807 280.26 141.041 279.56 139.641 278.16C138.254 276.747 137.561 275.027 137.561 273C137.561 270.973 138.254 269.26 139.641 267.86C141.041 266.447 142.794 265.74 144.901 265.74C146.194 265.74 147.381 266.053 148.461 266.68C149.541 267.293 150.374 268.107 150.961 269.12L149.361 270.06C148.961 269.3 148.354 268.693 147.541 268.24C146.741 267.773 145.854 267.54 144.881 267.54C143.281 267.54 141.967 268.067 140.941 269.12C139.914 270.16 139.401 271.453 139.401 273C139.401 274.547 139.914 275.84 140.941 276.88C141.981 277.92 143.321 278.44 144.961 278.44C146.361 278.44 147.494 278.1 148.361 277.42C149.227 276.727 149.754 275.833 149.941 274.74H144.801V273.06H151.801ZM153.882 280V265.4H155.623V280H153.882ZM166.717 278.74C165.69 279.753 164.444 280.26 162.977 280.26C161.51 280.26 160.264 279.753 159.237 278.74C158.224 277.727 157.717 276.48 157.717 275C157.717 273.52 158.224 272.273 159.237 271.26C160.264 270.247 161.51 269.74 162.977 269.74C164.444 269.74 165.69 270.247 166.717 271.26C167.744 272.273 168.257 273.52 168.257 275C168.257 276.48 167.744 277.727 166.717 278.74ZM162.977 278.56C163.977 278.56 164.817 278.22 165.497 277.54C166.177 276.86 166.517 276.013 166.517 275C166.517 273.987 166.177 273.14 165.497 272.46C164.817 271.78 163.977 271.44 162.977 271.44C161.99 271.44 161.157 271.78 160.477 272.46C159.797 273.14 159.457 273.987 159.457 275C159.457 276.013 159.797 276.86 160.477 277.54C161.157 278.22 161.99 278.56 162.977 278.56ZM175.828 269.74C177.228 269.74 178.422 270.253 179.408 271.28C180.395 272.293 180.888 273.533 180.888 275C180.888 276.467 180.395 277.713 179.408 278.74C178.422 279.753 177.228 280.26 175.828 280.26C174.175 280.26 172.915 279.6 172.048 278.28V280H170.308V266H172.048V271.72C172.915 270.4 174.175 269.74 175.828 269.74ZM175.608 278.58C176.608 278.58 177.448 278.24 178.128 277.56C178.808 276.867 179.148 276.013 179.148 275C179.148 273.987 178.808 273.14 178.128 272.46C177.448 271.767 176.608 271.42 175.608 271.42C174.595 271.42 173.748 271.767 173.068 272.46C172.388 273.14 172.048 273.987 172.048 275C172.048 276.013 172.388 276.867 173.068 277.56C173.748 278.24 174.595 278.58 175.608 278.58ZM191.245 270H192.985V280H191.245V278.28C190.378 279.6 189.118 280.26 187.465 280.26C186.065 280.26 184.871 279.753 183.885 278.74C182.898 277.713 182.405 276.467 182.405 275C182.405 273.533 182.898 272.293 183.885 271.28C184.871 270.253 186.065 269.74 187.465 269.74C189.118 269.74 190.378 270.4 191.245 271.72V270ZM187.685 278.58C188.698 278.58 189.545 278.24 190.225 277.56C190.905 276.867 191.245 276.013 191.245 275C191.245 273.987 190.905 273.14 190.225 272.46C189.545 271.767 188.698 271.42 187.685 271.42C186.685 271.42 185.845 271.767 185.165 272.46C184.485 273.14 184.145 273.987 184.145 275C184.145 276.013 184.485 276.867 185.165 277.56C185.845 278.24 186.685 278.58 187.685 278.58ZM195.621 280V265.4H197.361V280H195.621ZM200.015 280V265.4H201.755V280H200.015ZM211.39 270H213.25L209.17 280.62C208.743 281.753 208.143 282.613 207.37 283.2C206.61 283.8 205.73 284.067 204.73 284V282.38C205.957 282.473 206.857 281.793 207.43 280.34L207.61 279.96L203.25 270H205.11L208.51 277.84L211.39 270ZM220.583 268.18C220.249 268.18 219.969 268.067 219.743 267.84C219.516 267.613 219.403 267.34 219.403 267.02C219.403 266.7 219.516 266.427 219.743 266.2C219.969 265.96 220.249 265.84 220.583 265.84C220.903 265.84 221.176 265.96 221.403 266.2C221.629 266.427 221.743 266.7 221.743 267.02C221.743 267.34 221.629 267.613 221.403 267.84C221.176 268.067 220.903 268.18 220.583 268.18ZM219.703 280V270H221.443V280H219.703ZM229.077 269.74C230.251 269.74 231.191 270.113 231.897 270.86C232.604 271.593 232.957 272.593 232.957 273.86V280H231.217V273.96C231.217 273.147 230.997 272.52 230.557 272.08C230.117 271.627 229.511 271.4 228.737 271.4C227.871 271.4 227.171 271.673 226.637 272.22C226.104 272.753 225.837 273.58 225.837 274.7V280H224.097V270H225.837V271.44C226.544 270.307 227.624 269.74 229.077 269.74ZM240.086 280.26C238.58 280.26 237.326 279.76 236.326 278.76C235.326 277.747 234.826 276.493 234.826 275C234.826 273.507 235.326 272.26 236.326 271.26C237.326 270.247 238.58 269.74 240.086 269.74C241.073 269.74 241.96 269.98 242.746 270.46C243.533 270.927 244.12 271.56 244.506 272.36L243.046 273.2C242.793 272.667 242.4 272.24 241.866 271.92C241.346 271.6 240.753 271.44 240.086 271.44C239.086 271.44 238.246 271.78 237.566 272.46C236.9 273.14 236.566 273.987 236.566 275C236.566 276 236.9 276.84 237.566 277.52C238.246 278.2 239.086 278.54 240.086 278.54C240.753 278.54 241.353 278.387 241.886 278.08C242.42 277.76 242.826 277.333 243.106 276.8L244.586 277.66C244.16 278.447 243.546 279.08 242.746 279.56C241.946 280.027 241.06 280.26 240.086 280.26ZM253.224 270H254.964V280H253.224V278.56C252.517 279.693 251.437 280.26 249.984 280.26C248.811 280.26 247.871 279.893 247.164 279.16C246.457 278.413 246.104 277.407 246.104 276.14V270H247.844V276.04C247.844 276.853 248.064 277.487 248.504 277.94C248.944 278.38 249.551 278.6 250.324 278.6C251.191 278.6 251.891 278.333 252.424 277.8C252.957 277.253 253.224 276.42 253.224 275.3V270ZM263.133 269.74C264.533 269.74 265.726 270.253 266.713 271.28C267.7 272.293 268.193 273.533 268.193 275C268.193 276.467 267.7 277.713 266.713 278.74C265.726 279.753 264.533 280.26 263.133 280.26C261.48 280.26 260.22 279.6 259.353 278.28V280H257.613V266H259.353V271.72C260.22 270.4 261.48 269.74 263.133 269.74ZM262.913 278.58C263.913 278.58 264.753 278.24 265.433 277.56C266.113 276.867 266.453 276.013 266.453 275C266.453 273.987 266.113 273.14 265.433 272.46C264.753 271.767 263.913 271.42 262.913 271.42C261.9 271.42 261.053 271.767 260.373 272.46C259.693 273.14 259.353 273.987 259.353 275C259.353 276.013 259.693 276.867 260.373 277.56C261.053 278.24 261.9 278.58 262.913 278.58ZM278.549 270H280.289V280H278.549V278.28C277.683 279.6 276.423 280.26 274.769 280.26C273.369 280.26 272.176 279.753 271.189 278.74C270.203 277.713 269.709 276.467 269.709 275C269.709 273.533 270.203 272.293 271.189 271.28C272.176 270.253 273.369 269.74 274.769 269.74C276.423 269.74 277.683 270.4 278.549 271.72V270ZM274.989 278.58C276.003 278.58 276.849 278.24 277.529 277.56C278.209 276.867 278.549 276.013 278.549 275C278.549 273.987 278.209 273.14 277.529 272.46C276.849 271.767 276.003 271.42 274.989 271.42C273.989 271.42 273.149 271.767 272.469 272.46C271.789 273.14 271.449 273.987 271.449 275C271.449 276.013 271.789 276.867 272.469 277.56C273.149 278.24 273.989 278.58 274.989 278.58ZM288.365 271.68H285.705V277.1C285.705 277.593 285.799 277.947 285.985 278.16C286.185 278.36 286.485 278.467 286.885 278.48C287.285 278.48 287.779 278.467 288.365 278.44V280C286.845 280.2 285.732 280.08 285.025 279.64C284.319 279.187 283.965 278.34 283.965 277.1V271.68H281.985V270H283.965V267.72L285.705 267.2V270H288.365V271.68ZM291.138 275.8C291.311 276.693 291.718 277.387 292.358 277.88C293.011 278.373 293.811 278.62 294.758 278.62C296.078 278.62 297.038 278.133 297.638 277.16L299.118 278C298.144 279.507 296.678 280.26 294.718 280.26C293.131 280.26 291.838 279.767 290.838 278.78C289.851 277.78 289.358 276.52 289.358 275C289.358 273.493 289.844 272.24 290.818 271.24C291.791 270.24 293.051 269.74 294.598 269.74C296.064 269.74 297.258 270.26 298.178 271.3C299.111 272.327 299.578 273.567 299.578 275.02C299.578 275.273 299.558 275.533 299.518 275.8H291.138ZM294.598 271.38C293.664 271.38 292.891 271.647 292.278 272.18C291.664 272.7 291.284 273.4 291.138 274.28H297.818C297.671 273.333 297.298 272.613 296.698 272.12C296.098 271.627 295.398 271.38 294.598 271.38ZM308.078 272.7C308.078 273.087 308.271 273.4 308.658 273.64C309.044 273.867 309.511 274.053 310.058 274.2C310.604 274.333 311.151 274.493 311.698 274.68C312.244 274.853 312.711 275.16 313.098 275.6C313.484 276.027 313.678 276.58 313.678 277.26C313.678 278.167 313.324 278.893 312.618 279.44C311.924 279.987 311.031 280.26 309.938 280.26C308.964 280.26 308.131 280.047 307.438 279.62C306.744 279.193 306.251 278.627 305.958 277.92L307.458 277.06C307.618 277.54 307.918 277.92 308.358 278.2C308.798 278.48 309.324 278.62 309.938 278.62C310.511 278.62 310.984 278.513 311.358 278.3C311.731 278.073 311.918 277.727 311.918 277.26C311.918 276.873 311.724 276.567 311.338 276.34C310.951 276.1 310.484 275.913 309.938 275.78C309.391 275.633 308.844 275.467 308.298 275.28C307.751 275.093 307.284 274.787 306.898 274.36C306.511 273.933 306.318 273.387 306.318 272.72C306.318 271.853 306.651 271.14 307.318 270.58C307.998 270.02 308.844 269.74 309.858 269.74C310.671 269.74 311.391 269.927 312.018 270.3C312.658 270.66 313.138 271.167 313.458 271.82L311.998 272.64C311.638 271.787 310.924 271.36 309.858 271.36C309.364 271.36 308.944 271.48 308.598 271.72C308.251 271.947 308.078 272.273 308.078 272.7ZM320.787 271.68H318.127V277.1C318.127 277.593 318.221 277.947 318.407 278.16C318.607 278.36 318.907 278.467 319.307 278.48C319.707 278.48 320.201 278.467 320.787 278.44V280C319.267 280.2 318.154 280.08 317.447 279.64C316.741 279.187 316.387 278.34 316.387 277.1V271.68H314.407V270H316.387V267.72L318.127 267.2V270H320.787V271.68ZM330.62 270H332.36V280H330.62V278.28C329.753 279.6 328.493 280.26 326.84 280.26C325.44 280.26 324.246 279.753 323.26 278.74C322.273 277.713 321.78 276.467 321.78 275C321.78 273.533 322.273 272.293 323.26 271.28C324.246 270.253 325.44 269.74 326.84 269.74C328.493 269.74 329.753 270.4 330.62 271.72V270ZM327.06 278.58C328.073 278.58 328.92 278.24 329.6 277.56C330.28 276.867 330.62 276.013 330.62 275C330.62 273.987 330.28 273.14 329.6 272.46C328.92 271.767 328.073 271.42 327.06 271.42C326.06 271.42 325.22 271.767 324.54 272.46C323.86 273.14 323.52 273.987 323.52 275C323.52 276.013 323.86 276.867 324.54 277.56C325.22 278.24 326.06 278.58 327.06 278.58ZM339.976 269.74C341.149 269.74 342.089 270.113 342.796 270.86C343.502 271.593 343.856 272.593 343.856 273.86V280H342.116V273.96C342.116 273.147 341.896 272.52 341.456 272.08C341.016 271.627 340.409 271.4 339.636 271.4C338.769 271.4 338.069 271.673 337.536 272.22C337.002 272.753 336.736 273.58 336.736 274.7V280H334.996V270H336.736V271.44C337.442 270.307 338.522 269.74 339.976 269.74ZM354.565 266H356.305V280H354.565V278.28C353.698 279.6 352.438 280.26 350.785 280.26C349.385 280.26 348.192 279.753 347.205 278.74C346.218 277.713 345.725 276.467 345.725 275C345.725 273.533 346.218 272.293 347.205 271.28C348.192 270.253 349.385 269.74 350.785 269.74C352.438 269.74 353.698 270.4 354.565 271.72V266ZM351.005 278.58C352.018 278.58 352.865 278.24 353.545 277.56C354.225 276.867 354.565 276.013 354.565 275C354.565 273.987 354.225 273.14 353.545 272.46C352.865 271.767 352.018 271.42 351.005 271.42C350.005 271.42 349.165 271.767 348.485 272.46C347.805 273.14 347.465 273.987 347.465 275C347.465 276.013 347.805 276.867 348.485 277.56C349.165 278.24 350.005 278.58 351.005 278.58ZM367.221 270H368.961V280H367.221V278.28C366.354 279.6 365.094 280.26 363.441 280.26C362.041 280.26 360.848 279.753 359.861 278.74C358.874 277.713 358.381 276.467 358.381 275C358.381 273.533 358.874 272.293 359.861 271.28C360.848 270.253 362.041 269.74 363.441 269.74C365.094 269.74 366.354 270.4 367.221 271.72V270ZM363.661 278.58C364.674 278.58 365.521 278.24 366.201 277.56C366.881 276.867 367.221 276.013 367.221 275C367.221 273.987 366.881 273.14 366.201 272.46C365.521 271.767 364.674 271.42 363.661 271.42C362.661 271.42 361.821 271.767 361.141 272.46C360.461 273.14 360.121 273.987 360.121 275C360.121 276.013 360.461 276.867 361.141 277.56C361.821 278.24 362.661 278.58 363.661 278.58ZM373.337 271.68C373.911 270.44 374.951 269.82 376.457 269.82V271.64C375.604 271.6 374.871 271.827 374.257 272.32C373.644 272.813 373.337 273.607 373.337 274.7V280H371.597V270H373.337V271.68ZM385.893 266H387.633V280H385.893V278.28C385.026 279.6 383.766 280.26 382.113 280.26C380.713 280.26 379.52 279.753 378.533 278.74C377.546 277.713 377.053 276.467 377.053 275C377.053 273.533 377.546 272.293 378.533 271.28C379.52 270.253 380.713 269.74 382.113 269.74C383.766 269.74 385.026 270.4 385.893 271.72V266ZM382.333 278.58C383.346 278.58 384.193 278.24 384.873 277.56C385.553 276.867 385.893 276.013 385.893 275C385.893 273.987 385.553 273.14 384.873 272.46C384.193 271.767 383.346 271.42 382.333 271.42C381.333 271.42 380.493 271.767 379.813 272.46C379.133 273.14 378.793 273.987 378.793 275C378.793 276.013 379.133 276.867 379.813 277.56C380.493 278.24 381.333 278.58 382.333 278.58ZM391.75 272.7C391.75 273.087 391.943 273.4 392.33 273.64C392.716 273.867 393.183 274.053 393.73 274.2C394.276 274.333 394.823 274.493 395.37 274.68C395.916 274.853 396.383 275.16 396.77 275.6C397.156 276.027 397.35 276.58 397.35 277.26C397.35 278.167 396.996 278.893 396.29 279.44C395.596 279.987 394.703 280.26 393.61 280.26C392.636 280.26 391.803 280.047 391.11 279.62C390.416 279.193 389.923 278.627 389.63 277.92L391.13 277.06C391.29 277.54 391.59 277.92 392.03 278.2C392.47 278.48 392.996 278.62 393.61 278.62C394.183 278.62 394.656 278.513 395.03 278.3C395.403 278.073 395.59 277.727 395.59 277.26C395.59 276.873 395.396 276.567 395.01 276.34C394.623 276.1 394.156 275.913 393.61 275.78C393.063 275.633 392.516 275.467 391.97 275.28C391.423 275.093 390.956 274.787 390.57 274.36C390.183 273.933 389.99 273.387 389.99 272.72C389.99 271.853 390.323 271.14 390.99 270.58C391.67 270.02 392.516 269.74 393.53 269.74C394.343 269.74 395.063 269.927 395.69 270.3C396.33 270.66 396.81 271.167 397.13 271.82L395.67 272.64C395.31 271.787 394.596 271.36 393.53 271.36C393.036 271.36 392.616 271.48 392.27 271.72C391.923 271.947 391.75 272.273 391.75 272.7ZM400.295 280.22C399.935 280.22 399.628 280.093 399.375 279.84C399.122 279.587 398.995 279.28 398.995 278.92C398.995 278.56 399.122 278.253 399.375 278C399.628 277.747 399.935 277.62 400.295 277.62C400.668 277.62 400.975 277.747 401.215 278C401.468 278.253 401.595 278.56 401.595 278.92C401.595 279.28 401.468 279.587 401.215 279.84C400.975 280.093 400.668 280.22 400.295 280.22Z" fill="#888888"/>
<path d="M313.5 111C313.5 115.953 309.338 120.823 301.414 125.357C293.528 129.87 282.083 133.951 267.898 137.384C239.535 144.249 200.327 148.5 157 148.5C113.673 148.5 74.4646 144.249 46.1019 137.384C31.9166 133.951 20.4721 129.87 12.5862 125.357C4.66197 120.823 0.5 115.953 0.5 111C0.5 106.047 4.66197 101.177 12.5862 96.6427C20.4721 92.13 31.9166 88.0493 46.1019 84.6159C74.4646 77.751 113.673 73.5 157 73.5C200.327 73.5 239.535 77.751 267.898 84.6159C282.083 88.0493 293.528 92.13 301.414 96.6427C309.338 101.177 313.5 106.047 313.5 111Z" stroke="#F25822"/>
<path d="M39.24 53.84C35.08 53.84 31.58 52.92 28.74 51.08C25.9 49.2 23.9 46.66 22.74 43.46L29.82 39.32C31.46 43.6 34.68 45.74 39.48 45.74C41.8 45.74 43.5 45.32 44.58 44.48C45.66 43.64 46.2 42.58 46.2 41.3C46.2 39.82 45.54 38.68 44.22 37.88C42.9 37.04 40.54 36.14 37.14 35.18C35.26 34.62 33.66 34.06 32.34 33.5C31.06 32.94 29.76 32.2 28.44 31.28C27.16 30.32 26.18 29.12 25.5 27.68C24.82 26.24 24.48 24.56 24.48 22.64C24.48 18.84 25.82 15.82 28.5 13.58C31.22 11.3 34.48 10.16 38.28 10.16C41.68 10.16 44.66 11 47.22 12.68C49.82 14.32 51.84 16.62 53.28 19.58L46.32 23.6C44.64 20 41.96 18.2 38.28 18.2C36.56 18.2 35.2 18.6 34.2 19.4C33.24 20.16 32.76 21.16 32.76 22.4C32.76 23.72 33.3 24.8 34.38 25.64C35.5 26.44 37.62 27.32 40.74 28.28C42.02 28.68 42.98 29 43.62 29.24C44.3 29.44 45.2 29.78 46.32 30.26C47.48 30.7 48.36 31.12 48.96 31.52C49.6 31.92 50.32 32.46 51.12 33.14C51.92 33.82 52.52 34.52 52.92 35.24C53.36 35.96 53.72 36.84 54 37.88C54.32 38.88 54.48 39.98 54.48 41.18C54.48 45.06 53.06 48.14 50.22 50.42C47.42 52.7 43.76 53.84 39.24 53.84ZM67.8675 45.08H85.5675V53H59.5875V11H85.2675V18.92H67.8675V27.86H83.7675V35.66H67.8675V45.08ZM126.451 47.54C122.211 51.74 117.051 53.84 110.971 53.84C104.891 53.84 99.7309 51.74 95.4909 47.54C91.2909 43.3 89.1909 38.12 89.1909 32C89.1909 25.88 91.2909 20.72 95.4909 16.52C99.7309 12.28 104.891 10.16 110.971 10.16C117.051 10.16 122.211 12.28 126.451 16.52C130.691 20.72 132.811 25.88 132.811 32C132.811 38.12 130.691 43.3 126.451 47.54ZM101.311 41.9C103.911 44.46 107.131 45.74 110.971 45.74C114.811 45.74 118.031 44.46 120.631 41.9C123.231 39.3 124.531 36 124.531 32C124.531 28 123.231 24.7 120.631 22.1C118.031 19.5 114.811 18.2 110.971 18.2C107.131 18.2 103.911 19.5 101.311 22.1C98.7109 24.7 97.4109 28 97.4109 32C97.4109 36 98.7109 39.3 101.311 41.9ZM188.85 50.6L182.25 54.38L178.41 50.24C175.17 52.64 171.41 53.84 167.13 53.84C162.81 53.84 159.27 52.72 156.51 50.48C153.79 48.2 152.43 45.16 152.43 41.36C152.43 38.88 153.03 36.58 154.23 34.46C155.43 32.34 157.17 30.62 159.45 29.3C158.09 27.14 157.41 24.8 157.41 22.28C157.41 18.72 158.65 15.82 161.13 13.58C163.61 11.3 166.75 10.16 170.55 10.16C173.55 10.16 176.23 10.94 178.59 12.5C180.99 14.02 182.77 16.24 183.93 19.16L176.85 23.24C175.69 19.88 173.63 18.2 170.67 18.2C169.23 18.2 168.03 18.62 167.07 19.46C166.15 20.3 165.69 21.36 165.69 22.64C165.69 23.76 165.95 24.78 166.47 25.7C167.03 26.62 167.91 27.72 169.11 29L178.11 38.84C178.99 36.96 179.67 34.64 180.15 31.88L187.11 35.84C186.35 39.08 185.13 42.02 183.45 44.66L188.85 50.6ZM167.67 46.22C169.75 46.22 171.61 45.72 173.25 44.72L164.19 34.88C164.11 34.8 164.07 34.74 164.07 34.7C161.87 36.06 160.77 38 160.77 40.52C160.77 42.24 161.35 43.62 162.51 44.66C163.71 45.7 165.43 46.22 167.67 46.22ZM225.682 11C231.442 11 236.242 13.02 240.082 17.06C243.962 21.1 245.902 26.08 245.902 32C245.902 37.92 243.962 42.9 240.082 46.94C236.242 50.98 231.442 53 225.682 53H209.002V11H225.682ZM225.682 45.08C229.322 45.08 232.282 43.88 234.562 41.48C236.842 39.04 237.982 35.88 237.982 32C237.982 28.12 236.842 24.98 234.562 22.58C232.282 20.14 229.322 18.92 225.682 18.92H217.282V45.08H225.682ZM255.255 19.4C253.975 19.4 252.855 18.94 251.895 18.02C250.975 17.06 250.515 15.94 250.515 14.66C250.515 13.38 250.975 12.26 251.895 11.3C252.855 10.34 253.975 9.86 255.255 9.86C256.575 9.86 257.695 10.34 258.615 11.3C259.575 12.26 260.055 13.38 260.055 14.66C260.055 15.94 259.575 17.06 258.615 18.02C257.695 18.94 256.575 19.4 255.255 19.4ZM251.415 53V23H259.155V53H251.415ZM289.219 23H296.779V51.56C296.779 56.2 295.239 59.74 292.159 62.18C289.119 64.62 285.439 65.84 281.119 65.84C277.879 65.84 275.019 65.22 272.539 63.98C270.099 62.74 268.219 60.92 266.899 58.52L273.499 54.74C275.019 57.54 277.639 58.94 281.359 58.94C283.799 58.94 285.719 58.3 287.119 57.02C288.519 55.74 289.219 53.92 289.219 51.56V48.32C286.939 51.36 283.739 52.88 279.619 52.88C275.379 52.88 271.819 51.4 268.939 48.44C266.099 45.44 264.679 41.8 264.679 37.52C264.679 33.28 266.119 29.66 268.999 26.66C271.879 23.66 275.419 22.16 279.619 22.16C283.739 22.16 286.939 23.68 289.219 26.72V23ZM274.759 43.46C276.359 44.98 278.379 45.74 280.819 45.74C283.259 45.74 285.259 44.98 286.819 43.46C288.419 41.9 289.219 39.92 289.219 37.52C289.219 35.16 288.419 33.22 286.819 31.7C285.259 30.14 283.259 29.36 280.819 29.36C278.379 29.36 276.359 30.14 274.759 31.7C273.199 33.22 272.419 35.16 272.419 37.52C272.419 39.92 273.199 41.9 274.759 43.46ZM307.638 19.4C306.358 19.4 305.238 18.94 304.278 18.02C303.358 17.06 302.898 15.94 302.898 14.66C302.898 13.38 303.358 12.26 304.278 11.3C305.238 10.34 306.358 9.86 307.638 9.86C308.958 9.86 310.078 10.34 310.998 11.3C311.958 12.26 312.438 13.38 312.438 14.66C312.438 15.94 311.958 17.06 310.998 18.02C310.078 18.94 308.958 19.4 307.638 19.4ZM303.798 53V23H311.538V53H303.798ZM335.782 30.44H329.002V42.92C329.002 43.96 329.262 44.72 329.782 45.2C330.302 45.68 331.062 45.96 332.062 46.04C333.062 46.08 334.302 46.06 335.782 45.98V53C330.462 53.6 326.702 53.1 324.502 51.5C322.342 49.9 321.262 47.04 321.262 42.92V30.44H316.042V23H321.262V16.94L329.002 14.6V23H335.782V30.44ZM363.102 23H370.842V53H363.102V49.46C360.782 52.38 357.522 53.84 353.322 53.84C349.322 53.84 345.882 52.32 343.002 49.28C340.162 46.2 338.742 42.44 338.742 38C338.742 33.56 340.162 29.82 343.002 26.78C345.882 23.7 349.322 22.16 353.322 22.16C357.522 22.16 360.782 23.62 363.102 26.54V23ZM348.822 44.12C350.382 45.68 352.362 46.46 354.762 46.46C357.162 46.46 359.142 45.68 360.702 44.12C362.302 42.52 363.102 40.48 363.102 38C363.102 35.52 362.302 33.5 360.702 31.94C359.142 30.34 357.162 29.54 354.762 29.54C352.362 29.54 350.382 30.34 348.822 31.94C347.262 33.5 346.482 35.52 346.482 38C346.482 40.48 347.262 42.52 348.822 44.12ZM377.86 53V9.2H385.6V53H377.86ZM66 85V127H57.78V99.76L45.96 119.26H45L33.18 99.82V127H24.9V85H33.42L45.48 104.86L57.48 85H66ZM96.2658 97H104.006V127H96.2658V123.46C93.9458 126.38 90.6858 127.84 86.4858 127.84C82.4858 127.84 79.0458 126.32 76.1658 123.28C73.3258 120.2 71.9058 116.44 71.9058 112C71.9058 107.56 73.3258 103.82 76.1658 100.78C79.0458 97.7 82.4858 96.16 86.4858 96.16C90.6858 96.16 93.9458 97.62 96.2658 100.54V97ZM81.9858 118.12C83.5458 119.68 85.5258 120.46 87.9258 120.46C90.3258 120.46 92.3058 119.68 93.8658 118.12C95.4658 116.52 96.2658 114.48 96.2658 112C96.2658 109.52 95.4658 107.5 93.8658 105.94C92.3058 104.34 90.3258 103.54 87.9258 103.54C85.5258 103.54 83.5458 104.34 81.9858 105.94C80.4258 107.5 79.6458 109.52 79.6458 112C79.6458 114.48 80.4258 116.52 81.9858 118.12ZM118.764 102.16C119.484 100.24 120.664 98.8 122.304 97.84C123.984 96.88 125.844 96.4 127.884 96.4V105.04C125.524 104.76 123.404 105.24 121.524 106.48C119.684 107.72 118.764 109.78 118.764 112.66V127H111.024V97H118.764V102.16ZM160.071 127H151.071L140.151 113.38V127H132.411V85H140.151V110.2L150.471 97H159.711L147.651 111.82L160.071 127ZM168.307 115.18C169.347 118.94 172.167 120.82 176.767 120.82C179.727 120.82 181.967 119.82 183.487 117.82L189.727 121.42C186.767 125.7 182.407 127.84 176.647 127.84C171.687 127.84 167.707 126.34 164.707 123.34C161.707 120.34 160.207 116.56 160.207 112C160.207 107.48 161.687 103.72 164.647 100.72C167.607 97.68 171.407 96.16 176.047 96.16C180.447 96.16 184.067 97.68 186.907 100.72C189.787 103.76 191.227 107.52 191.227 112C191.227 113 191.127 114.06 190.927 115.18H168.307ZM168.187 109.18H183.487C183.047 107.14 182.127 105.62 180.727 104.62C179.367 103.62 177.807 103.12 176.047 103.12C173.967 103.12 172.247 103.66 170.887 104.74C169.527 105.78 168.627 107.26 168.187 109.18ZM212.911 104.44H206.131V116.92C206.131 117.96 206.391 118.72 206.911 119.2C207.431 119.68 208.191 119.96 209.191 120.04C210.191 120.08 211.431 120.06 212.911 119.98V127C207.591 127.6 203.831 127.1 201.631 125.5C199.471 123.9 198.391 121.04 198.391 116.92V104.44H193.171V97H198.391V90.94L206.131 88.6V97H212.911V104.44ZM222.208 93.4C220.928 93.4 219.808 92.94 218.848 92.02C217.928 91.06 217.468 89.94 217.468 88.66C217.468 87.38 217.928 86.26 218.848 85.3C219.808 84.34 220.928 83.86 222.208 83.86C223.528 83.86 224.648 84.34 225.568 85.3C226.528 86.26 227.008 87.38 227.008 88.66C227.008 89.94 226.528 91.06 225.568 92.02C224.648 92.94 223.528 93.4 222.208 93.4ZM218.368 127V97H226.108V127H218.368ZM249.872 96.16C253.152 96.16 255.852 97.26 257.972 99.46C260.132 101.66 261.212 104.7 261.212 108.58V127H253.472V109.54C253.472 107.54 252.932 106.02 251.852 104.98C250.772 103.9 249.332 103.36 247.532 103.36C245.532 103.36 243.932 103.98 242.732 105.22C241.532 106.46 240.932 108.32 240.932 110.8V127H233.192V97H240.932V100.36C242.812 97.56 245.792 96.16 249.872 96.16ZM290.801 97H298.361V125.56C298.361 130.2 296.821 133.74 293.741 136.18C290.701 138.62 287.021 139.84 282.701 139.84C279.461 139.84 276.601 139.22 274.121 137.98C271.681 136.74 269.801 134.92 268.481 132.52L275.081 128.74C276.601 131.54 279.221 132.94 282.941 132.94C285.381 132.94 287.301 132.3 288.701 131.02C290.101 129.74 290.801 127.92 290.801 125.56V122.32C288.521 125.36 285.321 126.88 281.201 126.88C276.961 126.88 273.401 125.4 270.521 122.44C267.681 119.44 266.261 115.8 266.261 111.52C266.261 107.28 267.701 103.66 270.581 100.66C273.461 97.66 277.001 96.16 281.201 96.16C285.321 96.16 288.521 97.68 290.801 100.72V97ZM276.341 117.46C277.941 118.98 279.961 119.74 282.401 119.74C284.841 119.74 286.841 118.98 288.401 117.46C290.001 115.9 290.801 113.92 290.801 111.52C290.801 109.16 290.001 107.22 288.401 105.7C286.841 104.14 284.841 103.36 282.401 103.36C279.961 103.36 277.941 104.14 276.341 105.7C274.781 107.22 274.001 109.16 274.001 111.52C274.001 113.92 274.781 115.9 276.341 117.46ZM345.82 92.92H329.02V102.88H345.34V110.8H329.02V127H320.74V85H345.82V92.92ZM377.053 123.28C373.973 126.32 370.213 127.84 365.773 127.84C361.333 127.84 357.573 126.32 354.493 123.28C351.453 120.2 349.933 116.44 349.933 112C349.933 107.56 351.453 103.82 354.493 100.78C357.573 97.7 361.333 96.16 365.773 96.16C370.213 96.16 373.973 97.7 377.053 100.78C380.133 103.82 381.673 107.56 381.673 112C381.673 116.44 380.133 120.2 377.053 123.28ZM359.953 117.94C361.513 119.5 363.453 120.28 365.773 120.28C368.093 120.28 370.033 119.5 371.593 117.94C373.153 116.38 373.933 114.4 373.933 112C373.933 109.6 373.153 107.62 371.593 106.06C370.033 104.5 368.093 103.72 365.773 103.72C363.453 103.72 361.513 104.5 359.953 106.06C358.433 107.62 357.673 109.6 357.673 112C357.673 114.4 358.433 116.38 359.953 117.94ZM394.858 102.16C395.578 100.24 396.758 98.8 398.398 97.84C400.078 96.88 401.938 96.4 403.978 96.4V105.04C401.618 104.76 399.498 105.24 397.618 106.48C395.778 107.72 394.858 109.78 394.858 112.66V127H387.118V97H394.858V102.16ZM457.105 85L442.705 110.62V127H434.485V110.62L420.145 85H429.505L438.625 102.52L447.745 85H457.105ZM480.354 123.28C477.274 126.32 473.514 127.84 469.074 127.84C464.634 127.84 460.874 126.32 457.794 123.28C454.754 120.2 453.234 116.44 453.234 112C453.234 107.56 454.754 103.82 457.794 100.78C460.874 97.7 464.634 96.16 469.074 96.16C473.514 96.16 477.274 97.7 480.354 100.78C483.434 103.82 484.974 107.56 484.974 112C484.974 116.44 483.434 120.2 480.354 123.28ZM463.254 117.94C464.814 119.5 466.754 120.28 469.074 120.28C471.394 120.28 473.334 119.5 474.894 117.94C476.454 116.38 477.234 114.4 477.234 112C477.234 109.6 476.454 107.62 474.894 106.06C473.334 104.5 471.394 103.72 469.074 103.72C466.754 103.72 464.814 104.5 463.254 106.06C461.734 107.62 460.974 109.6 460.974 112C460.974 114.4 461.734 116.38 463.254 117.94ZM510.219 97H517.959V127H510.219V123.64C508.339 126.44 505.359 127.84 501.279 127.84C497.999 127.84 495.279 126.74 493.119 124.54C490.999 122.34 489.939 119.3 489.939 115.42V97H497.679V114.46C497.679 116.46 498.219 118 499.299 119.08C500.379 120.12 501.819 120.64 503.619 120.64C505.619 120.64 507.219 120.02 508.419 118.78C509.619 117.54 510.219 115.68 510.219 113.2V97ZM532.788 102.16C533.508 100.24 534.688 98.8 536.328 97.84C538.008 96.88 539.868 96.4 541.908 96.4V105.04C539.548 104.76 537.428 105.24 535.548 106.48C533.708 107.72 532.788 109.78 532.788 112.66V127H525.048V97H532.788V102.16ZM33.66 201L21.9 159H30.6L38.64 190.14L47.4 159H54.48L63.3 190.14L71.34 159H80.04L68.28 201H58.86L50.94 173.28L43.08 201H33.66ZM87.4472 189.18C88.4872 192.94 91.3072 194.82 95.9072 194.82C98.8672 194.82 101.107 193.82 102.627 191.82L108.867 195.42C105.907 199.7 101.547 201.84 95.7872 201.84C90.8272 201.84 86.8472 200.34 83.8472 197.34C80.8472 194.34 79.3472 190.56 79.3472 186C79.3472 181.48 80.8272 177.72 83.7872 174.72C86.7472 171.68 90.5472 170.16 95.1872 170.16C99.5872 170.16 103.207 171.68 106.047 174.72C108.927 177.76 110.367 181.52 110.367 186C110.367 187 110.267 188.06 110.067 189.18H87.4472ZM87.3272 183.18H102.627C102.187 181.14 101.267 179.62 99.8672 178.62C98.5072 177.62 96.9472 177.12 95.1872 177.12C93.1072 177.12 91.3872 177.66 90.0272 178.74C88.6672 179.78 87.7672 181.26 87.3272 183.18ZM133.23 170.16C137.27 170.16 140.71 171.7 143.55 174.78C146.43 177.82 147.87 181.56 147.87 186C147.87 190.44 146.43 194.2 143.55 197.28C140.71 200.32 137.27 201.84 133.23 201.84C129.03 201.84 125.79 200.38 123.51 197.46V201H115.77V159H123.51V174.54C125.79 171.62 129.03 170.16 133.23 170.16ZM125.85 192.12C127.41 193.68 129.39 194.46 131.79 194.46C134.19 194.46 136.17 193.68 137.73 192.12C139.33 190.52 140.13 188.48 140.13 186C140.13 183.52 139.33 181.5 137.73 179.94C136.17 178.34 134.19 177.54 131.79 177.54C129.39 177.54 127.41 178.34 125.85 179.94C124.29 181.5 123.51 183.52 123.51 186C123.51 188.48 124.29 190.52 125.85 192.12ZM159.825 179.52C159.825 180.32 160.345 180.98 161.385 181.5C162.465 181.98 163.765 182.42 165.285 182.82C166.805 183.18 168.325 183.66 169.845 184.26C171.365 184.82 172.645 185.78 173.685 187.14C174.765 188.5 175.305 190.2 175.305 192.24C175.305 195.32 174.145 197.7 171.825 199.38C169.545 201.02 166.685 201.84 163.245 201.84C157.085 201.84 152.885 199.46 150.645 194.7L157.365 190.92C158.245 193.52 160.205 194.82 163.245 194.82C166.005 194.82 167.385 193.96 167.385 192.24C167.385 191.44 166.845 190.8 165.765 190.32C164.725 189.8 163.445 189.34 161.925 188.94C160.405 188.54 158.885 188.04 157.365 187.44C155.845 186.84 154.545 185.9 153.465 184.62C152.425 183.3 151.905 181.66 151.905 179.7C151.905 176.74 152.985 174.42 155.145 172.74C157.345 171.02 160.065 170.16 163.305 170.16C165.745 170.16 167.965 170.72 169.965 171.84C171.965 172.92 173.545 174.48 174.705 176.52L168.105 180.12C167.145 178.08 165.545 177.06 163.305 177.06C162.305 177.06 161.465 177.28 160.785 177.72C160.145 178.16 159.825 178.76 159.825 179.52ZM184.122 167.4C182.842 167.4 181.722 166.94 180.762 166.02C179.842 165.06 179.382 163.94 179.382 162.66C179.382 161.38 179.842 160.26 180.762 159.3C181.722 158.34 182.842 157.86 184.122 157.86C185.442 157.86 186.562 158.34 187.482 159.3C188.442 160.26 188.922 161.38 188.922 162.66C188.922 163.94 188.442 165.06 187.482 166.02C186.562 166.94 185.442 167.4 184.122 167.4ZM180.282 201V171H188.022V201H180.282ZM212.266 178.44H205.486V190.92C205.486 191.96 205.746 192.72 206.266 193.2C206.786 193.68 207.546 193.96 208.546 194.04C209.546 194.08 210.786 194.06 212.266 193.98V201C206.946 201.6 203.186 201.1 200.986 199.5C198.826 197.9 197.746 195.04 197.746 190.92V178.44H192.526V171H197.746V164.94L205.486 162.6V171H212.266V178.44ZM223.326 189.18C224.366 192.94 227.186 194.82 231.786 194.82C234.746 194.82 236.986 193.82 238.506 191.82L244.746 195.42C241.786 199.7 237.426 201.84 231.666 201.84C226.706 201.84 222.726 200.34 219.726 197.34C216.726 194.34 215.226 190.56 215.226 186C215.226 181.48 216.706 177.72 219.666 174.72C222.626 171.68 226.426 170.16 231.066 170.16C235.466 170.16 239.086 171.68 241.926 174.72C244.806 177.76 246.246 181.52 246.246 186C246.246 187 246.146 188.06 245.946 189.18H223.326ZM223.206 183.18H238.506C238.066 181.14 237.146 179.62 235.746 178.62C234.386 177.62 232.826 177.12 231.066 177.12C228.986 177.12 227.266 177.66 225.906 178.74C224.546 179.78 223.646 181.26 223.206 183.18ZM257.347 200.28C256.347 201.28 255.147 201.78 253.747 201.78C252.347 201.78 251.147 201.28 250.147 200.28C249.147 199.28 248.647 198.08 248.647 196.68C248.647 195.28 249.147 194.08 250.147 193.08C251.147 192.08 252.347 191.58 253.747 191.58C255.147 191.58 256.347 192.08 257.347 193.08C258.347 194.08 258.847 195.28 258.847 196.68C258.847 198.08 258.347 199.28 257.347 200.28Z" fill="black"/>
<defs>
<filter id="filter0_d_4_55" x="19" y="320" width="156" height="66" filterUnits="userSpaceOnUse" color-interpolation-filters="sRGB">
<feFlood flood-opacity="0" result="BackgroundImageFix"/>
<feColorMatrix in="SourceAlpha" type="matrix" values="0 0 0 0 0 0 0 0 0 0 0 0 0 0 0 0 0 0 127 0" result="hardAlpha"/>
<feOffset dx="4" dy="4"/>
<feGaussianBlur stdDeviation="4"/>
<feColorMatrix type="matrix" values="0 0 0 0 0.94902 0 0 0 0 0.345098 0 0 0 0 0.133333 0 0 0 0.2 0"/>
<feBlend mode="normal" in2="BackgroundImageFix" result="effect1_dropShadow_4_55"/>
<feBlend mode="normal" in="SourceGraphic" in2="effect1_dropShadow_4_55" result="shape"/>
</filter>
</defs>
</svg>
